<svg width="1322" height="185" viewBox="0 0 1322 185" fill="none" xmlns="http://www.w3.org/2000/svg">
<rect x="-6" width="1328" height="185" fill="url(#paint0_linear_11_57)"/>
<path d="M540.656 87L547.448 70.128H550.112L556.88 87H553.4L548.168 73.152H549.368L544.064 87H540.656ZM544.256 83.856V81.12H553.328V83.856H544.256ZM558.724 87V69.648H561.868V87H558.724ZM564.654 87V69.648H567.798V87H564.654ZM578.007 79.944V77.4H581.919C582.719 77.4 583.335 77.2 583.767 76.8C584.215 76.384 584.439 75.816 584.439 75.096C584.439 74.44 584.215 73.896 583.767 73.464C583.335 73.016 582.719 72.792 581.919 72.792H578.007V70.128H582.207C583.295 70.128 584.247 70.344 585.063 70.776C585.895 71.192 586.535 71.768 586.983 72.504C587.447 73.24 587.679 74.088 587.679 75.048C587.679 76.04 587.447 76.904 586.983 77.64C586.535 78.36 585.895 78.928 585.063 79.344C584.231 79.744 583.263 79.944 582.159 79.944H578.007ZM575.607 87V70.128H578.871V87H575.607ZM584.823 87L579.255 79.704L582.255 78.768L588.783 87H584.823ZM590.622 87V75.408H593.79V87H590.622ZM592.206 73.536C591.694 73.536 591.27 73.368 590.934 73.032C590.598 72.68 590.43 72.248 590.43 71.736C590.43 71.24 590.598 70.816 590.934 70.464C591.27 70.112 591.694 69.936 592.206 69.936C592.734 69.936 593.158 70.112 593.478 70.464C593.814 70.816 593.982 71.24 593.982 71.736C593.982 72.248 593.814 72.68 593.478 73.032C593.158 73.368 592.734 73.536 592.206 73.536ZM601.424 92.136C600.192 92.136 599.104 91.912 598.16 91.464C597.216 91.032 596.464 90.416 595.904 89.616L597.896 87.624C598.344 88.152 598.84 88.552 599.384 88.824C599.944 89.112 600.616 89.256 601.4 89.256C602.376 89.256 603.144 89.008 603.704 88.512C604.28 88.016 604.568 87.328 604.568 86.448V83.544L605.096 81L604.592 78.456V75.408H607.712V86.4C607.712 87.552 607.44 88.552 606.896 89.4C606.368 90.264 605.632 90.936 604.688 91.416C603.744 91.896 602.656 92.136 601.424 92.136ZM601.28 86.688C600.24 86.688 599.304 86.44 598.472 85.944C597.64 85.432 596.984 84.736 596.504 83.856C596.04 82.976 595.808 81.992 595.808 80.904C595.808 79.816 596.04 78.84 596.504 77.976C596.984 77.112 597.64 76.432 598.472 75.936C599.304 75.424 600.24 75.168 601.28 75.168C602.144 75.168 602.904 75.336 603.56 75.672C604.232 76.008 604.76 76.472 605.144 77.064C605.528 77.64 605.736 78.32 605.768 79.104V82.752C605.736 83.52 605.52 84.208 605.12 84.816C604.736 85.408 604.208 85.872 603.536 86.208C602.88 86.528 602.128 86.688 601.28 86.688ZM601.904 83.832C602.48 83.832 602.976 83.712 603.392 83.472C603.824 83.216 604.16 82.872 604.4 82.44C604.64 81.992 604.76 81.488 604.76 80.928C604.76 80.352 604.64 79.848 604.4 79.416C604.16 78.984 603.824 78.648 603.392 78.408C602.976 78.152 602.48 78.024 601.904 78.024C601.328 78.024 600.824 78.152 600.392 78.408C599.96 78.648 599.624 78.992 599.384 79.44C599.144 79.872 599.024 80.368 599.024 80.928C599.024 81.472 599.144 81.968 599.384 82.416C599.624 82.848 599.96 83.192 600.392 83.448C600.824 83.704 601.328 83.832 601.904 83.832ZM618.274 87V80.352C618.274 79.664 618.058 79.104 617.626 78.672C617.194 78.24 616.634 78.024 615.946 78.024C615.498 78.024 615.098 78.12 614.746 78.312C614.394 78.504 614.114 78.776 613.906 79.128C613.714 79.48 613.618 79.888 613.618 80.352L612.394 79.728C612.394 78.816 612.586 78.024 612.97 77.352C613.354 76.664 613.882 76.128 614.554 75.744C615.242 75.36 616.026 75.168 616.906 75.168C617.786 75.168 618.562 75.36 619.234 75.744C619.922 76.128 620.458 76.656 620.842 77.328C621.226 78 621.418 78.776 621.418 79.656V87H618.274ZM610.474 87V69.648H613.618V87H610.474ZM625.514 87V70.584H628.658V87H625.514ZM622.802 78.168V75.408H631.37V78.168H622.802ZM636.888 87.264C636.232 87.264 635.584 87.176 634.944 87C634.32 86.824 633.744 86.584 633.216 86.28C632.688 85.96 632.232 85.576 631.848 85.128L633.72 83.232C634.12 83.68 634.584 84.016 635.112 84.24C635.64 84.464 636.224 84.576 636.864 84.576C637.376 84.576 637.76 84.504 638.016 84.36C638.288 84.216 638.424 84 638.424 83.712C638.424 83.392 638.28 83.144 637.992 82.968C637.72 82.792 637.36 82.648 636.912 82.536C636.464 82.408 635.992 82.272 635.496 82.128C635.016 81.968 634.552 81.768 634.104 81.528C633.656 81.272 633.288 80.928 633 80.496C632.728 80.048 632.592 79.472 632.592 78.768C632.592 78.032 632.768 77.392 633.12 76.848C633.488 76.304 634.008 75.88 634.68 75.576C635.352 75.272 636.144 75.12 637.056 75.12C638.016 75.12 638.88 75.288 639.648 75.624C640.432 75.96 641.08 76.464 641.592 77.136L639.696 79.032C639.344 78.6 638.944 78.288 638.496 78.096C638.064 77.904 637.592 77.808 637.08 77.808C636.616 77.808 636.256 77.88 636 78.024C635.76 78.168 635.64 78.368 635.64 78.624C635.64 78.912 635.776 79.136 636.048 79.296C636.336 79.456 636.704 79.6 637.152 79.728C637.6 79.84 638.064 79.976 638.544 80.136C639.04 80.28 639.504 80.488 639.936 80.76C640.384 81.032 640.744 81.392 641.016 81.84C641.304 82.288 641.448 82.864 641.448 83.568C641.448 84.704 641.04 85.608 640.224 86.28C639.408 86.936 638.296 87.264 636.888 87.264ZM650.991 79.944V77.4H654.903C655.703 77.4 656.319 77.2 656.751 76.8C657.199 76.384 657.423 75.816 657.423 75.096C657.423 74.44 657.199 73.896 656.751 73.464C656.319 73.016 655.703 72.792 654.903 72.792H650.991V70.128H655.191C656.279 70.128 657.231 70.344 658.047 70.776C658.879 71.192 659.519 71.768 659.967 72.504C660.431 73.24 660.663 74.088 660.663 75.048C660.663 76.04 660.431 76.904 659.967 77.64C659.519 78.36 658.879 78.928 658.047 79.344C657.215 79.744 656.247 79.944 655.143 79.944H650.991ZM648.591 87V70.128H651.855V87H648.591ZM657.807 87L652.239 79.704L655.239 78.768L661.767 87H657.807ZM668.495 87.24C667.279 87.24 666.199 86.984 665.255 86.472C664.311 85.944 663.559 85.224 662.999 84.312C662.455 83.4 662.183 82.36 662.183 81.192C662.183 80.04 662.447 79.016 662.975 78.12C663.519 77.208 664.255 76.488 665.183 75.96C666.111 75.416 667.143 75.144 668.279 75.144C669.399 75.144 670.383 75.4 671.231 75.912C672.095 76.408 672.767 77.096 673.247 77.976C673.743 78.84 673.991 79.824 673.991 80.928C673.991 81.136 673.975 81.352 673.943 81.576C673.927 81.784 673.887 82.024 673.823 82.296L664.079 82.32V79.968L672.359 79.944L671.087 80.928C671.055 80.24 670.927 79.664 670.703 79.2C670.495 78.736 670.183 78.384 669.767 78.144C669.367 77.888 668.871 77.76 668.279 77.76C667.655 77.76 667.111 77.904 666.647 78.192C666.183 78.464 665.823 78.856 665.567 79.368C665.327 79.864 665.207 80.456 665.207 81.144C665.207 81.848 665.335 82.464 665.591 82.992C665.863 83.504 666.247 83.904 666.743 84.192C667.239 84.464 667.815 84.6 668.471 84.6C669.063 84.6 669.599 84.504 670.079 84.312C670.559 84.104 670.975 83.8 671.327 83.4L673.175 85.248C672.615 85.904 671.927 86.4 671.111 86.736C670.311 87.072 669.439 87.24 668.495 87.24ZM679.919 87.264C679.263 87.264 678.615 87.176 677.975 87C677.351 86.824 676.775 86.584 676.247 86.28C675.719 85.96 675.263 85.576 674.879 85.128L676.751 83.232C677.151 83.68 677.615 84.016 678.143 84.24C678.671 84.464 679.255 84.576 679.895 84.576C680.407 84.576 680.791 84.504 681.047 84.36C681.319 84.216 681.455 84 681.455 83.712C681.455 83.392 681.311 83.144 681.023 82.968C680.751 82.792 680.391 82.648 679.943 82.536C679.495 82.408 679.023 82.272 678.527 82.128C678.047 81.968 677.583 81.768 677.135 81.528C676.687 81.272 676.319 80.928 676.031 80.496C675.759 80.048 675.623 79.472 675.623 78.768C675.623 78.032 675.799 77.392 676.151 76.848C676.519 76.304 677.039 75.88 677.711 75.576C678.383 75.272 679.175 75.12 680.087 75.12C681.047 75.12 681.911 75.288 682.679 75.624C683.463 75.96 684.111 76.464 684.623 77.136L682.727 79.032C682.375 78.6 681.975 78.288 681.527 78.096C681.095 77.904 680.623 77.808 680.111 77.808C679.647 77.808 679.287 77.88 679.031 78.024C678.791 78.168 678.671 78.368 678.671 78.624C678.671 78.912 678.807 79.136 679.079 79.296C679.367 79.456 679.735 79.6 680.183 79.728C680.631 79.84 681.095 79.976 681.575 80.136C682.071 80.28 682.535 80.488 682.967 80.76C683.415 81.032 683.775 81.392 684.047 81.84C684.335 82.288 684.479 82.864 684.479 83.568C684.479 84.704 684.071 85.608 683.255 86.28C682.439 86.936 681.327 87.264 679.919 87.264ZM692.143 87.24C690.927 87.24 689.847 86.984 688.903 86.472C687.959 85.944 687.207 85.224 686.647 84.312C686.103 83.4 685.831 82.36 685.831 81.192C685.831 80.04 686.095 79.016 686.623 78.12C687.167 77.208 687.903 76.488 688.831 75.96C689.759 75.416 690.791 75.144 691.927 75.144C693.047 75.144 694.031 75.4 694.879 75.912C695.743 76.408 696.415 77.096 696.895 77.976C697.391 78.84 697.639 79.824 697.639 80.928C697.639 81.136 697.623 81.352 697.591 81.576C697.575 81.784 697.535 82.024 697.471 82.296L687.727 82.32V79.968L696.007 79.944L694.735 80.928C694.703 80.24 694.575 79.664 694.351 79.2C694.143 78.736 693.831 78.384 693.415 78.144C693.015 77.888 692.519 77.76 691.927 77.76C691.303 77.76 690.759 77.904 690.295 78.192C689.831 78.464 689.471 78.856 689.215 79.368C688.975 79.864 688.855 80.456 688.855 81.144C688.855 81.848 688.983 82.464 689.239 82.992C689.511 83.504 689.895 83.904 690.391 84.192C690.887 84.464 691.463 84.6 692.119 84.6C692.711 84.6 693.247 84.504 693.727 84.312C694.207 84.104 694.623 83.8 694.975 83.4L696.823 85.248C696.263 85.904 695.575 86.4 694.759 86.736C693.959 87.072 693.087 87.24 692.143 87.24ZM699.583 87V75.408H702.727V87H699.583ZM702.727 80.592L701.503 79.776C701.647 78.352 702.063 77.232 702.751 76.416C703.439 75.584 704.431 75.168 705.727 75.168C706.287 75.168 706.791 75.264 707.239 75.456C707.687 75.632 708.095 75.928 708.463 76.344L706.495 78.6C706.319 78.408 706.103 78.264 705.847 78.168C705.607 78.072 705.327 78.024 705.007 78.024C704.335 78.024 703.783 78.24 703.351 78.672C702.935 79.088 702.727 79.728 702.727 80.592ZM713.219 87L708.107 75.408H711.563L715.235 84.96H713.531L717.227 75.408H720.563L715.475 87H713.219ZM727.206 87.24C725.99 87.24 724.91 86.984 723.966 86.472C723.022 85.944 722.27 85.224 721.71 84.312C721.166 83.4 720.894 82.36 720.894 81.192C720.894 80.04 721.158 79.016 721.686 78.12C722.23 77.208 722.966 76.488 723.894 75.96C724.822 75.416 725.854 75.144 726.99 75.144C728.11 75.144 729.094 75.4 729.942 75.912C730.806 76.408 731.478 77.096 731.958 77.976C732.454 78.84 732.702 79.824 732.702 80.928C732.702 81.136 732.686 81.352 732.654 81.576C732.638 81.784 732.598 82.024 732.534 82.296L722.79 82.32V79.968L731.07 79.944L729.798 80.928C729.766 80.24 729.638 79.664 729.414 79.2C729.206 78.736 728.894 78.384 728.478 78.144C728.078 77.888 727.582 77.76 726.99 77.76C726.366 77.76 725.822 77.904 725.358 78.192C724.894 78.464 724.534 78.856 724.278 79.368C724.038 79.864 723.918 80.456 723.918 81.144C723.918 81.848 724.046 82.464 724.302 82.992C724.574 83.504 724.958 83.904 725.454 84.192C725.95 84.464 726.526 84.6 727.182 84.6C727.774 84.6 728.31 84.504 728.79 84.312C729.27 84.104 729.686 83.8 730.038 83.4L731.886 85.248C731.326 85.904 730.638 86.4 729.822 86.736C729.022 87.072 728.15 87.24 727.206 87.24ZM739.542 87.24C738.47 87.24 737.51 86.976 736.662 86.448C735.814 85.92 735.142 85.2 734.646 84.288C734.166 83.376 733.926 82.352 733.926 81.216C733.926 80.064 734.166 79.032 734.646 78.12C735.142 77.208 735.806 76.488 736.638 75.96C737.486 75.432 738.454 75.168 739.542 75.168C740.374 75.168 741.118 75.336 741.774 75.672C742.446 76.008 742.982 76.48 743.382 77.088C743.798 77.68 744.022 78.352 744.054 79.104V83.232C744.022 83.984 743.806 84.664 743.406 85.272C743.006 85.88 742.47 86.36 741.798 86.712C741.126 87.064 740.374 87.24 739.542 87.24ZM740.07 84.336C740.662 84.336 741.174 84.208 741.606 83.952C742.054 83.68 742.398 83.312 742.638 82.848C742.894 82.368 743.022 81.816 743.022 81.192C743.022 80.584 742.894 80.048 742.638 79.584C742.398 79.104 742.054 78.736 741.606 78.48C741.174 78.208 740.67 78.072 740.094 78.072C739.502 78.072 738.982 78.208 738.534 78.48C738.102 78.752 737.758 79.12 737.502 79.584C737.262 80.048 737.142 80.584 737.142 81.192C737.142 81.816 737.262 82.368 737.502 82.848C737.758 83.312 738.11 83.68 738.558 83.952C739.006 84.208 739.51 84.336 740.07 84.336ZM745.974 87H742.854V83.88L743.358 81.048L742.83 78.264V69.648H745.974V87ZM756.179 87V84.336H760.571C761.355 84.336 761.963 84.096 762.395 83.616C762.843 83.136 763.067 82.568 763.067 81.912C763.067 81.464 762.971 81.056 762.779 80.688C762.587 80.32 762.299 80.032 761.915 79.824C761.547 79.6 761.099 79.488 760.571 79.488H756.179V76.848H760.211C760.883 76.848 761.419 76.68 761.819 76.344C762.235 76.008 762.443 75.504 762.443 74.832C762.443 74.144 762.235 73.632 761.819 73.296C761.419 72.96 760.883 72.792 760.211 72.792H756.179V70.128H760.595C761.715 70.128 762.651 70.336 763.403 70.752C764.171 71.152 764.747 71.688 765.131 72.36C765.515 73.016 765.707 73.736 765.707 74.52C765.707 75.48 765.411 76.312 764.819 77.016C764.243 77.704 763.395 78.216 762.275 78.552L762.419 77.496C763.667 77.848 764.627 78.432 765.299 79.248C765.987 80.048 766.331 81.016 766.331 82.152C766.331 83.048 766.107 83.864 765.659 84.6C765.227 85.32 764.587 85.904 763.739 86.352C762.907 86.784 761.891 87 760.691 87H756.179ZM753.779 87V70.128H757.019V87H753.779ZM772.231 87.096L767.383 75.408H770.791L774.007 84.336H772.855L776.191 75.408H779.623L774.463 87.072L772.231 87.096ZM769.015 91.848L772.543 84.384L774.463 87.072L772.351 91.848H769.015ZM491.115 117V100.128H494.379V117H491.115ZM501.699 117V100.128H504.963V117H501.699ZM493.179 109.728V106.848H502.611V109.728H493.179ZM512.924 117.24C511.868 117.24 510.916 116.976 510.068 116.448C509.22 115.92 508.556 115.2 508.076 114.288C507.596 113.376 507.356 112.352 507.356 111.216C507.356 110.064 507.596 109.032 508.076 108.12C508.556 107.208 509.22 106.488 510.068 105.96C510.916 105.432 511.868 105.168 512.924 105.168C513.756 105.168 514.5 105.336 515.156 105.672C515.812 106.008 516.332 106.48 516.716 107.088C517.116 107.68 517.332 108.352 517.364 109.104V113.28C517.332 114.048 517.116 114.728 516.716 115.32C516.332 115.912 515.812 116.384 515.156 116.736C514.5 117.072 513.756 117.24 512.924 117.24ZM513.5 114.336C514.38 114.336 515.092 114.048 515.636 113.472C516.18 112.88 516.452 112.12 516.452 111.192C516.452 110.584 516.324 110.048 516.068 109.584C515.828 109.104 515.484 108.736 515.036 108.48C514.604 108.208 514.092 108.072 513.5 108.072C512.924 108.072 512.412 108.208 511.964 108.48C511.532 108.736 511.188 109.104 510.932 109.584C510.692 110.048 510.572 110.584 510.572 111.192C510.572 111.816 510.692 112.368 510.932 112.848C511.188 113.312 511.532 113.68 511.964 113.952C512.412 114.208 512.924 114.336 513.5 114.336ZM516.284 117V113.88L516.788 111.048L516.284 108.264V105.408H519.404V117H516.284ZM527.081 117.24C526.009 117.24 525.049 116.976 524.201 116.448C523.353 115.92 522.681 115.2 522.185 114.288C521.705 113.376 521.465 112.352 521.465 111.216C521.465 110.064 521.705 109.032 522.185 108.12C522.681 107.208 523.345 106.488 524.177 105.96C525.025 105.432 525.993 105.168 527.081 105.168C527.913 105.168 528.657 105.336 529.313 105.672C529.985 106.008 530.521 106.48 530.921 107.088C531.337 107.68 531.561 108.352 531.593 109.104V113.232C531.561 113.984 531.345 114.664 530.945 115.272C530.545 115.88 530.009 116.36 529.337 116.712C528.665 117.064 527.913 117.24 527.081 117.24ZM527.609 114.336C528.201 114.336 528.713 114.208 529.145 113.952C529.593 113.68 529.937 113.312 530.177 112.848C530.433 112.368 530.561 111.816 530.561 111.192C530.561 110.584 530.433 110.048 530.177 109.584C529.937 109.104 529.593 108.736 529.145 108.48C528.713 108.208 528.209 108.072 527.633 108.072C527.041 108.072 526.521 108.208 526.073 108.48C525.641 108.752 525.297 109.12 525.041 109.584C524.801 110.048 524.681 110.584 524.681 111.192C524.681 111.816 524.801 112.368 525.041 112.848C525.297 113.312 525.649 113.68 526.097 113.952C526.545 114.208 527.049 114.336 527.609 114.336ZM533.513 117H530.393V113.88L530.897 111.048L530.369 108.264V99.648H533.513V117ZM541.838 117.24C540.622 117.24 539.542 116.984 538.598 116.472C537.654 115.944 536.902 115.224 536.342 114.312C535.798 113.4 535.526 112.36 535.526 111.192C535.526 110.04 535.79 109.016 536.318 108.12C536.862 107.208 537.598 106.488 538.526 105.96C539.454 105.416 540.486 105.144 541.622 105.144C542.742 105.144 543.726 105.4 544.574 105.912C545.438 106.408 546.11 107.096 546.59 107.976C547.086 108.84 547.334 109.824 547.334 110.928C547.334 111.136 547.318 111.352 547.286 111.576C547.27 111.784 547.23 112.024 547.166 112.296L537.422 112.32V109.968L545.702 109.944L544.43 110.928C544.398 110.24 544.27 109.664 544.046 109.2C543.838 108.736 543.526 108.384 543.11 108.144C542.71 107.888 542.214 107.76 541.622 107.76C540.998 107.76 540.454 107.904 539.99 108.192C539.526 108.464 539.166 108.856 538.91 109.368C538.67 109.864 538.55 110.456 538.55 111.144C538.55 111.848 538.678 112.464 538.934 112.992C539.206 113.504 539.59 113.904 540.086 114.192C540.582 114.464 541.158 114.6 541.814 114.6C542.406 114.6 542.942 114.504 543.422 114.312C543.902 114.104 544.318 113.8 544.67 113.4L546.518 115.248C545.958 115.904 545.27 116.4 544.454 116.736C543.654 117.072 542.782 117.24 541.838 117.24ZM554.823 117.24C553.607 117.24 552.527 116.984 551.583 116.472C550.639 115.944 549.887 115.224 549.327 114.312C548.783 113.4 548.511 112.36 548.511 111.192C548.511 110.04 548.775 109.016 549.303 108.12C549.847 107.208 550.583 106.488 551.511 105.96C552.439 105.416 553.471 105.144 554.607 105.144C555.727 105.144 556.711 105.4 557.559 105.912C558.423 106.408 559.095 107.096 559.575 107.976C560.071 108.84 560.319 109.824 560.319 110.928C560.319 111.136 560.303 111.352 560.271 111.576C560.255 111.784 560.215 112.024 560.151 112.296L550.407 112.32V109.968L558.687 109.944L557.415 110.928C557.383 110.24 557.255 109.664 557.031 109.2C556.823 108.736 556.511 108.384 556.095 108.144C555.695 107.888 555.199 107.76 554.607 107.76C553.983 107.76 553.439 107.904 552.975 108.192C552.511 108.464 552.151 108.856 551.895 109.368C551.655 109.864 551.535 110.456 551.535 111.144C551.535 111.848 551.663 112.464 551.919 112.992C552.191 113.504 552.575 113.904 553.071 114.192C553.567 114.464 554.143 114.6 554.799 114.6C555.391 114.6 555.927 114.504 556.407 114.312C556.887 114.104 557.303 113.8 557.655 113.4L559.503 115.248C558.943 115.904 558.255 116.4 557.439 116.736C556.639 117.072 555.767 117.24 554.823 117.24ZM562.263 117V99.648H565.407V117H562.263ZM573.216 117V100.128H576.48V117H573.216ZM583.8 117V100.128H587.064V117H583.8ZM575.28 109.728V106.848H584.712V109.728H575.28ZM595.025 117.24C593.969 117.24 593.017 116.976 592.169 116.448C591.321 115.92 590.657 115.2 590.177 114.288C589.697 113.376 589.457 112.352 589.457 111.216C589.457 110.064 589.697 109.032 590.177 108.12C590.657 107.208 591.321 106.488 592.169 105.96C593.017 105.432 593.969 105.168 595.025 105.168C595.857 105.168 596.601 105.336 597.257 105.672C597.913 106.008 598.433 106.48 598.817 107.088C599.217 107.68 599.433 108.352 599.465 109.104V113.28C599.433 114.048 599.217 114.728 598.817 115.32C598.433 115.912 597.913 116.384 597.257 116.736C596.601 117.072 595.857 117.24 595.025 117.24ZM595.601 114.336C596.481 114.336 597.193 114.048 597.737 113.472C598.281 112.88 598.553 112.12 598.553 111.192C598.553 110.584 598.425 110.048 598.169 109.584C597.929 109.104 597.585 108.736 597.137 108.48C596.705 108.208 596.193 108.072 595.601 108.072C595.025 108.072 594.513 108.208 594.065 108.48C593.633 108.736 593.289 109.104 593.033 109.584C592.793 110.048 592.673 110.584 592.673 111.192C592.673 111.816 592.793 112.368 593.033 112.848C593.289 113.312 593.633 113.68 594.065 113.952C594.513 114.208 595.025 114.336 595.601 114.336ZM598.385 117V113.88L598.889 111.048L598.385 108.264V105.408H601.505V117H598.385ZM611.679 117L607.191 111.024L611.655 105.408H615.279L610.047 111.744L610.167 110.208L615.519 117H611.679ZM604.287 117V99.648H607.431V117H604.287ZM621.275 117.24C620.219 117.24 619.267 116.976 618.419 116.448C617.571 115.92 616.907 115.2 616.427 114.288C615.947 113.376 615.707 112.352 615.707 111.216C615.707 110.064 615.947 109.032 616.427 108.12C616.907 107.208 617.571 106.488 618.419 105.96C619.267 105.432 620.219 105.168 621.275 105.168C622.107 105.168 622.851 105.336 623.507 105.672C624.163 106.008 624.683 106.48 625.067 107.088C625.467 107.68 625.683 108.352 625.715 109.104V113.28C625.683 114.048 625.467 114.728 625.067 115.32C624.683 115.912 624.163 116.384 623.507 116.736C622.851 117.072 622.107 117.24 621.275 117.24ZM621.851 114.336C622.731 114.336 623.443 114.048 623.987 113.472C624.531 112.88 624.803 112.12 624.803 111.192C624.803 110.584 624.675 110.048 624.419 109.584C624.179 109.104 623.835 108.736 623.387 108.48C622.955 108.208 622.443 108.072 621.851 108.072C621.275 108.072 620.763 108.208 620.315 108.48C619.883 108.736 619.539 109.104 619.283 109.584C619.043 110.048 618.923 110.584 618.923 111.192C618.923 111.816 619.043 112.368 619.283 112.848C619.539 113.312 619.883 113.68 620.315 113.952C620.763 114.208 621.275 114.336 621.851 114.336ZM624.635 117V113.88L625.139 111.048L624.635 108.264V105.408H627.755V117H624.635ZM630.537 117V105.408H633.681V117H630.537ZM638.097 117V110.16C638.097 109.488 637.881 108.968 637.449 108.6C637.033 108.216 636.513 108.024 635.889 108.024C635.473 108.024 635.097 108.112 634.761 108.288C634.425 108.448 634.161 108.688 633.969 109.008C633.777 109.328 633.681 109.712 633.681 110.16L632.457 109.56C632.457 108.664 632.649 107.888 633.033 107.232C633.433 106.576 633.969 106.072 634.641 105.72C635.313 105.352 636.073 105.168 636.921 105.168C637.721 105.168 638.449 105.352 639.105 105.72C639.761 106.072 640.281 106.576 640.665 107.232C641.049 107.872 641.241 108.648 641.241 109.56V117H638.097ZM645.657 117V110.16C645.657 109.488 645.441 108.968 645.009 108.6C644.593 108.216 644.073 108.024 643.449 108.024C643.049 108.024 642.673 108.112 642.321 108.288C641.985 108.448 641.721 108.688 641.529 109.008C641.337 109.328 641.241 109.712 641.241 110.16L639.441 109.728C639.505 108.8 639.753 108 640.185 107.328C640.617 106.64 641.185 106.112 641.889 105.744C642.593 105.36 643.377 105.168 644.241 105.168C645.105 105.168 645.881 105.352 646.569 105.72C647.257 106.072 647.801 106.584 648.201 107.256C648.601 107.928 648.801 108.728 648.801 109.656V117H645.657ZM651.349 117V105.408H654.517V117H651.349ZM652.933 103.536C652.421 103.536 651.997 103.368 651.661 103.032C651.325 102.68 651.157 102.248 651.157 101.736C651.157 101.24 651.325 100.816 651.661 100.464C651.997 100.112 652.421 99.936 652.933 99.936C653.461 99.936 653.885 100.112 654.205 100.464C654.541 100.816 654.709 101.24 654.709 101.736C654.709 102.248 654.541 102.68 654.205 103.032C653.885 103.368 653.461 103.536 652.933 103.536ZM661.99 112.296V109.44H670.294V112.296H661.99ZM678.099 117V100.128H680.403L687.243 111.072H685.923L692.739 100.128H695.043V117H691.803V105.72L692.427 105.912L687.675 113.544H685.467L680.715 105.912L681.363 105.72V117H678.099ZM703.602 117.24C702.434 117.24 701.378 116.976 700.434 116.448C699.506 115.904 698.762 115.176 698.202 114.264C697.658 113.336 697.386 112.304 697.386 111.168C697.386 110.032 697.658 109.016 698.202 108.12C698.746 107.208 699.49 106.488 700.434 105.96C701.378 105.416 702.426 105.144 703.578 105.144C704.762 105.144 705.818 105.416 706.746 105.96C707.69 106.488 708.434 107.208 708.978 108.12C709.522 109.016 709.794 110.032 709.794 111.168C709.794 112.304 709.522 113.336 708.978 114.264C708.434 115.176 707.69 115.904 706.746 116.448C705.818 116.976 704.77 117.24 703.602 117.24ZM703.578 114.312C704.17 114.312 704.69 114.184 705.138 113.928C705.602 113.656 705.954 113.288 706.194 112.824C706.45 112.344 706.578 111.8 706.578 111.192C706.578 110.584 706.45 110.048 706.194 109.584C705.938 109.12 705.586 108.76 705.138 108.504C704.69 108.232 704.17 108.096 703.578 108.096C703.002 108.096 702.49 108.232 702.042 108.504C701.594 108.76 701.242 109.12 700.986 109.584C700.73 110.048 700.602 110.584 700.602 111.192C700.602 111.8 700.73 112.344 700.986 112.824C701.242 113.288 701.594 113.656 702.042 113.928C702.49 114.184 703.002 114.312 703.578 114.312ZM719.618 117V110.352C719.618 109.664 719.402 109.104 718.97 108.672C718.538 108.24 717.978 108.024 717.29 108.024C716.842 108.024 716.442 108.12 716.09 108.312C715.738 108.504 715.458 108.776 715.25 109.128C715.058 109.48 714.962 109.888 714.962 110.352L713.738 109.728C713.738 108.816 713.93 108.024 714.314 107.352C714.714 106.664 715.258 106.128 715.946 105.744C716.65 105.36 717.442 105.168 718.322 105.168C719.17 105.168 719.93 105.384 720.602 105.816C721.274 106.232 721.802 106.784 722.186 107.472C722.57 108.144 722.762 108.872 722.762 109.656V117H719.618ZM711.818 117V105.408H714.962V117H711.818ZM730.142 117.24C729.086 117.24 728.134 116.976 727.286 116.448C726.438 115.92 725.774 115.2 725.294 114.288C724.814 113.376 724.574 112.352 724.574 111.216C724.574 110.064 724.814 109.032 725.294 108.12C725.774 107.208 726.438 106.488 727.286 105.96C728.134 105.432 729.086 105.168 730.142 105.168C730.974 105.168 731.718 105.336 732.374 105.672C733.03 106.008 733.55 106.48 733.934 107.088C734.334 107.68 734.55 108.352 734.582 109.104V113.28C734.55 114.048 734.334 114.728 733.934 115.32C733.55 115.912 733.03 116.384 732.374 116.736C731.718 117.072 730.974 117.24 730.142 117.24ZM730.718 114.336C731.598 114.336 732.31 114.048 732.854 113.472C733.398 112.88 733.67 112.12 733.67 111.192C733.67 110.584 733.542 110.048 733.286 109.584C733.046 109.104 732.702 108.736 732.254 108.48C731.822 108.208 731.31 108.072 730.718 108.072C730.142 108.072 729.63 108.208 729.182 108.48C728.75 108.736 728.406 109.104 728.15 109.584C727.91 110.048 727.79 110.584 727.79 111.192C727.79 111.816 727.91 112.368 728.15 112.848C728.406 113.312 728.75 113.68 729.182 113.952C729.63 114.208 730.142 114.336 730.718 114.336ZM733.502 117V113.88L734.006 111.048L733.502 108.264V105.408H736.622V117H733.502ZM748.228 117V100.488H751.516V117H748.228ZM742.852 103.032V100.128H756.892V103.032H742.852ZM760.775 117.24C759.719 117.24 758.767 116.976 757.919 116.448C757.071 115.92 756.407 115.2 755.927 114.288C755.447 113.376 755.207 112.352 755.207 111.216C755.207 110.064 755.447 109.032 755.927 108.12C756.407 107.208 757.071 106.488 757.919 105.96C758.767 105.432 759.719 105.168 760.775 105.168C761.607 105.168 762.351 105.336 763.007 105.672C763.663 106.008 764.183 106.48 764.567 107.088C764.967 107.68 765.183 108.352 765.215 109.104V113.28C765.183 114.048 764.967 114.728 764.567 115.32C764.183 115.912 763.663 116.384 763.007 116.736C762.351 117.072 761.607 117.24 760.775 117.24ZM761.351 114.336C762.231 114.336 762.943 114.048 763.487 113.472C764.031 112.88 764.303 112.12 764.303 111.192C764.303 110.584 764.175 110.048 763.919 109.584C763.679 109.104 763.335 108.736 762.887 108.48C762.455 108.208 761.943 108.072 761.351 108.072C760.775 108.072 760.263 108.208 759.815 108.48C759.383 108.736 759.039 109.104 758.783 109.584C758.543 110.048 758.423 110.584 758.423 111.192C758.423 111.816 758.543 112.368 758.783 112.848C759.039 113.312 759.383 113.68 759.815 113.952C760.263 114.208 760.775 114.336 761.351 114.336ZM764.135 117V113.88L764.639 111.048L764.135 108.264V105.408H767.255V117H764.135ZM773.133 117L768.789 105.408H771.957L774.789 113.832L773.829 113.856L776.733 105.408H779.013L781.917 113.856L780.957 113.832L783.789 105.408H786.957L782.637 117H780.357L777.429 108.984H778.317L775.389 117H773.133ZM796.282 117V110.352C796.282 109.664 796.066 109.104 795.634 108.672C795.202 108.24 794.642 108.024 793.954 108.024C793.506 108.024 793.106 108.12 792.754 108.312C792.402 108.504 792.122 108.776 791.914 109.128C791.722 109.48 791.626 109.888 791.626 110.352L790.402 109.728C790.402 108.816 790.594 108.024 790.978 107.352C791.362 106.664 791.89 106.128 792.562 105.744C793.25 105.36 794.034 105.168 794.914 105.168C795.794 105.168 796.57 105.36 797.242 105.744C797.93 106.128 798.466 106.656 798.85 107.328C799.234 108 799.426 108.776 799.426 109.656V117H796.282ZM788.482 117V99.648H791.626V117H788.482ZM806.806 117.24C805.75 117.24 804.798 116.976 803.95 116.448C803.102 115.92 802.438 115.2 801.958 114.288C801.478 113.376 801.238 112.352 801.238 111.216C801.238 110.064 801.478 109.032 801.958 108.12C802.438 107.208 803.102 106.488 803.95 105.96C804.798 105.432 805.75 105.168 806.806 105.168C807.638 105.168 808.382 105.336 809.038 105.672C809.694 106.008 810.214 106.48 810.598 107.088C810.998 107.68 811.214 108.352 811.246 109.104V113.28C811.214 114.048 810.998 114.728 810.598 115.32C810.214 115.912 809.694 116.384 809.038 116.736C808.382 117.072 807.638 117.24 806.806 117.24ZM807.382 114.336C808.262 114.336 808.974 114.048 809.518 113.472C810.062 112.88 810.334 112.12 810.334 111.192C810.334 110.584 810.206 110.048 809.95 109.584C809.71 109.104 809.366 108.736 808.918 108.48C808.486 108.208 807.974 108.072 807.382 108.072C806.806 108.072 806.294 108.208 805.846 108.48C805.414 108.736 805.07 109.104 804.814 109.584C804.574 110.048 804.454 110.584 804.454 111.192C804.454 111.816 804.574 112.368 804.814 112.848C805.07 113.312 805.414 113.68 805.846 113.952C806.294 114.208 806.806 114.336 807.382 114.336ZM810.166 117V113.88L810.67 111.048L810.166 108.264V105.408H813.286V117H810.166ZM816.068 117V105.408H819.212V117H816.068ZM819.212 110.592L817.988 109.776C818.132 108.352 818.548 107.232 819.236 106.416C819.924 105.584 820.916 105.168 822.212 105.168C822.772 105.168 823.276 105.264 823.724 105.456C824.172 105.632 824.58 105.928 824.948 106.344L822.98 108.6C822.804 108.408 822.588 108.264 822.332 108.168C822.092 108.072 821.812 108.024 821.492 108.024C820.82 108.024 820.268 108.24 819.836 108.672C819.42 109.088 819.212 109.728 819.212 110.592ZM826.052 117V105.408H829.22V117H826.052ZM827.636 103.536C827.124 103.536 826.7 103.368 826.364 103.032C826.028 102.68 825.86 102.248 825.86 101.736C825.86 101.24 826.028 100.816 826.364 100.464C826.7 100.112 827.124 99.936 827.636 99.936C828.164 99.936 828.588 100.112 828.908 100.464C829.244 100.816 829.412 101.24 829.412 101.736C829.412 102.248 829.244 102.68 828.908 103.032C828.588 103.368 828.164 103.536 827.636 103.536Z" fill="white"/>
<defs>
<linearGradient id="paint0_linear_11_57" x1="-6" y1="185" x2="1321.94" y2="91.6626" gradientUnits="userSpaceOnUse">
<stop stop-color="#1BA79B"/>
<stop offset="0.346726" stop-color="#3C3A63"/>
<stop offset="1" stop-color="#451952"/>
</linearGradient>
</defs>
</svg>
