<svg xmlns="http://www.w3.org/2000/svg" xmlns:xlink="http://www.w3.org/1999/xlink" width="500" zoomAndPan="magnify" viewBox="0 0 375 374.999991" height="500" preserveAspectRatio="xMidYMid meet" version="1.0"><defs><g/><clipPath id="aa0d055f4e"><path d="M 51 73 L 106 73 L 106 128 L 51 128 Z M 51 73 " clip-rule="nonzero"/></clipPath><clipPath id="77d09be8a2"><path d="M 49.058594 121.707031 L 99.484375 71.28125 L 107.539062 79.332031 L 57.109375 129.761719 Z M 49.058594 121.707031 " clip-rule="nonzero"/></clipPath><clipPath id="e92acae9f9"><path d="M 53.085938 117.679688 L 95.433594 75.332031 C 96.503906 74.261719 97.949219 73.664062 99.460938 73.664062 C 100.972656 73.664062 102.421875 74.261719 103.488281 75.332031 C 104.554688 76.398438 105.15625 77.847656 105.15625 79.359375 C 105.15625 80.867188 104.554688 82.316406 103.488281 83.382812 L 61.136719 125.734375 C 60.070312 126.800781 58.621094 127.402344 57.109375 127.402344 C 55.601562 127.402344 54.152344 126.800781 53.085938 125.734375 C 52.015625 124.667969 51.417969 123.21875 51.417969 121.707031 C 51.417969 120.199219 52.015625 118.75 53.085938 117.679688 Z M 53.085938 117.679688 " clip-rule="nonzero"/></clipPath><clipPath id="987f5cf549"><path d="M 51 115 L 106 115 L 106 170 L 51 170 Z M 51 115 " clip-rule="nonzero"/></clipPath><clipPath id="a13caaff79"><path d="M 57.105469 113.570312 L 107.53125 163.996094 L 99.480469 172.050781 L 49.050781 121.621094 Z M 57.105469 113.570312 " clip-rule="nonzero"/></clipPath><clipPath id="998832262c"><path d="M 61.128906 117.597656 L 103.480469 159.945312 C 104.546875 161.015625 105.148438 162.460938 105.148438 163.972656 C 105.148438 165.484375 104.546875 166.929688 103.480469 168 C 102.414062 169.066406 100.964844 169.667969 99.453125 169.667969 C 97.945312 169.667969 96.496094 169.066406 95.425781 168 L 53.078125 125.648438 C 52.007812 124.582031 51.410156 123.132812 51.410156 121.621094 C 51.410156 120.113281 52.007812 118.664062 53.078125 117.597656 C 54.144531 116.527344 55.59375 115.929688 57.105469 115.929688 C 58.613281 115.929688 60.0625 116.527344 61.128906 117.597656 Z M 61.128906 117.597656 " clip-rule="nonzero"/></clipPath><clipPath id="9836aae8d1"><path d="M 274 196 L 329 196 L 329 251 L 274 251 Z M 274 196 " clip-rule="nonzero"/></clipPath><clipPath id="7216ebba30"><path d="M 330.949219 202.15625 L 280.523438 252.585938 L 272.46875 244.53125 L 322.898438 194.101562 Z M 330.949219 202.15625 " clip-rule="nonzero"/></clipPath><clipPath id="7736a9bf0e"><path d="M 326.921875 206.183594 L 284.574219 248.535156 C 283.503906 249.601562 282.058594 250.203125 280.546875 250.203125 C 279.035156 250.203125 277.589844 249.601562 276.519531 248.535156 C 275.453125 247.464844 274.851562 246.015625 274.851562 244.507812 C 274.851562 242.996094 275.453125 241.546875 276.519531 240.480469 L 318.871094 198.128906 C 319.9375 197.0625 321.386719 196.460938 322.898438 196.460938 C 324.40625 196.460938 325.855469 197.0625 326.921875 198.128906 C 327.992188 199.199219 328.589844 200.644531 328.589844 202.15625 C 328.589844 203.667969 327.992188 205.117188 326.921875 206.183594 Z M 326.921875 206.183594 " clip-rule="nonzero"/></clipPath><clipPath id="0c76357a28"><path d="M 274 154 L 329 154 L 329 208 L 274 208 Z M 274 154 " clip-rule="nonzero"/></clipPath><clipPath id="f4143211b7"><path d="M 322.902344 210.296875 L 272.476562 159.867188 L 280.53125 151.8125 L 330.957031 202.242188 Z M 322.902344 210.296875 " clip-rule="nonzero"/></clipPath><clipPath id="72cc51e015"><path d="M 318.878906 206.269531 L 276.527344 163.917969 C 275.460938 162.851562 274.859375 161.402344 274.859375 159.890625 C 274.859375 158.382812 275.460938 156.933594 276.527344 155.867188 C 277.59375 154.796875 279.042969 154.199219 280.554688 154.199219 C 282.066406 154.199219 283.511719 154.796875 284.582031 155.867188 L 326.929688 198.214844 C 328 199.285156 328.597656 200.730469 328.597656 202.242188 C 328.597656 203.753906 328 205.199219 326.929688 206.269531 C 325.863281 207.335938 324.414062 207.9375 322.902344 207.9375 C 321.394531 207.9375 319.945312 207.335938 318.878906 206.269531 Z M 318.878906 206.269531 " clip-rule="nonzero"/></clipPath><clipPath id="0f57704461"><path d="M 232 145 L 272 145 L 272 249 L 232 249 Z M 232 145 " clip-rule="nonzero"/></clipPath><clipPath id="0c575a8c2a"><path d="M 272.492188 147.042969 L 241.550781 249.511719 L 230.648438 246.21875 L 261.589844 143.75 Z M 272.492188 147.042969 " clip-rule="nonzero"/></clipPath><clipPath id="23fb2db74d"><path d="M 270.847656 152.492188 L 243.207031 244.035156 C 242.769531 245.480469 241.777344 246.695312 240.445312 247.40625 C 239.113281 248.121094 237.554688 248.277344 236.109375 247.839844 C 234.664062 247.402344 233.449219 246.410156 232.734375 245.078125 C 232.023438 243.75 231.867188 242.1875 232.300781 240.742188 L 259.945312 149.199219 C 260.378906 147.753906 261.375 146.542969 262.703125 145.828125 C 264.035156 145.113281 265.59375 144.957031 267.042969 145.394531 C 268.488281 145.832031 269.699219 146.824219 270.414062 148.15625 C 271.128906 149.488281 271.28125 151.046875 270.847656 152.492188 Z M 270.847656 152.492188 " clip-rule="nonzero"/></clipPath></defs><rect x="-37.5" width="450" fill="#ffffff" y="-37.499999" height="449.999989" fill-opacity="1"/><rect x="-37.5" width="450" fill="#ffffff" y="-37.499999" height="449.999989" fill-opacity="1"/><g clip-path="url(#aa0d055f4e)"><g clip-path="url(#77d09be8a2)"><g clip-path="url(#e92acae9f9)"><path fill="#630e7b" d="M 49.058594 121.707031 L 99.453125 71.3125 L 107.507812 79.363281 L 57.109375 129.761719 Z M 49.058594 121.707031 " fill-opacity="1" fill-rule="nonzero"/></g></g></g><g clip-path="url(#987f5cf549)"><g clip-path="url(#a13caaff79)"><g clip-path="url(#998832262c)"><path fill="#630e7b" d="M 57.105469 113.570312 L 107.5 163.964844 L 99.445312 172.019531 L 49.050781 121.621094 Z M 57.105469 113.570312 " fill-opacity="1" fill-rule="nonzero"/></g></g></g><g fill="#000000" fill-opacity="1"><g transform="translate(108.682657, 158.064002)"><g><path d="M 27.910156 1.113281 C 45.644531 1.113281 53.914062 -7.316406 53.914062 -27.355469 C 53.914062 -43.417969 53.914062 -52.480469 53.992188 -60.671875 L 15.664062 -60.671875 L 15.664062 -46.199219 C 23.140625 -46.4375 28.863281 -46.4375 34.351562 -46.4375 L 34.351562 -20.59375 C 34.351562 -18.050781 34.191406 -15.265625 33.875 -13.28125 C 32.839844 -13.039062 30.613281 -12.722656 28.46875 -12.722656 C 23.933594 -12.722656 20.992188 -15.1875 20.992188 -23.535156 L 2.304688 -23.535156 C 2.304688 -6.601562 10.894531 1.113281 27.910156 1.113281 Z M 27.910156 1.113281 "/></g></g></g><g fill="#000000" fill-opacity="1"><g transform="translate(165.372993, 158.064002)"><g><path d="M 28.785156 1.113281 C 46.835938 1.113281 57.410156 -3.816406 57.492188 -21.550781 L 57.410156 -38.167969 C 57.410156 -45.722656 57.410156 -53.195312 57.570312 -60.671875 L 38.007812 -60.671875 C 38.089844 -54.230469 38.246094 -36.816406 38.246094 -29.660156 C 38.246094 -20.277344 38.246094 -21.230469 37.691406 -13.757812 C 36.5 -13.199219 33.078125 -12.882812 31.089844 -12.882812 C 24.570312 -12.882812 23.058594 -20.199219 23.058594 -30.214844 C 23.058594 -35.863281 23.140625 -55.742188 23.21875 -60.671875 L 3.578125 -60.671875 C 3.816406 -55.183594 3.976562 -49.0625 3.976562 -42.460938 L 3.976562 -24.648438 C 3.976562 -6.757812 10.734375 1.113281 28.785156 1.113281 Z M 28.785156 1.113281 "/></g></g></g><g fill="#000000" fill-opacity="1"><g transform="translate(105.862622, 239.373396)"><g><path d="M 31.089844 1.113281 C 50.175781 1.113281 58.523438 -7.554688 59.238281 -22.980469 L 39.839844 -22.980469 C 39.839844 -19.640625 39.519531 -16.539062 39.28125 -13.359375 C 37.929688 -13.121094 35.386719 -12.800781 33.714844 -12.800781 C 24.730469 -12.800781 21.867188 -18.050781 21.867188 -28.46875 C 21.867188 -35.226562 22.183594 -41.429688 22.742188 -46.835938 C 24.253906 -47.472656 26.636719 -47.710938 28.46875 -47.710938 C 36.5 -47.710938 39.359375 -43.257812 39.996094 -33.714844 L 59.480469 -35.625 C 58.84375 -52.164062 51.605469 -61.707031 31.089844 -61.707031 C 10.65625 -61.707031 2.304688 -51.925781 2.304688 -30.375 C 2.304688 -8.667969 10.65625 1.113281 31.089844 1.113281 Z M 31.089844 1.113281 "/></g></g></g><g fill="#000000" fill-opacity="1"><g transform="translate(167.641572, 239.373396)"><g><path d="M 31.089844 1.113281 C 50.175781 1.113281 58.523438 -7.554688 59.238281 -22.980469 L 39.839844 -22.980469 C 39.839844 -19.640625 39.519531 -16.539062 39.28125 -13.359375 C 37.929688 -13.121094 35.386719 -12.800781 33.714844 -12.800781 C 24.730469 -12.800781 21.867188 -18.050781 21.867188 -28.46875 C 21.867188 -35.226562 22.183594 -41.429688 22.742188 -46.835938 C 24.253906 -47.472656 26.636719 -47.710938 28.46875 -47.710938 C 36.5 -47.710938 39.359375 -43.257812 39.996094 -33.714844 L 59.480469 -35.625 C 58.84375 -52.164062 51.605469 -61.707031 31.089844 -61.707031 C 10.65625 -61.707031 2.304688 -51.925781 2.304688 -30.375 C 2.304688 -8.667969 10.65625 1.113281 31.089844 1.113281 Z M 31.089844 1.113281 "/></g></g></g><g clip-path="url(#9836aae8d1)"><g clip-path="url(#7216ebba30)"><g clip-path="url(#7736a9bf0e)"><path fill="#630e7b" d="M 330.949219 202.15625 L 280.554688 252.554688 L 272.5 244.5 L 322.898438 194.101562 Z M 330.949219 202.15625 " fill-opacity="1" fill-rule="nonzero"/></g></g></g><g clip-path="url(#0c76357a28)"><g clip-path="url(#f4143211b7)"><g clip-path="url(#72cc51e015)"><path fill="#630e7b" d="M 322.902344 210.296875 L 272.507812 159.898438 L 280.5625 151.84375 L 330.957031 202.242188 Z M 322.902344 210.296875 " fill-opacity="1" fill-rule="nonzero"/></g></g></g><g clip-path="url(#0f57704461)"><g clip-path="url(#0c575a8c2a)"><g clip-path="url(#23fb2db74d)"><path fill="#1ba79b" d="M 272.492188 147.042969 L 241.566406 249.46875 L 230.660156 246.175781 L 261.589844 143.75 Z M 272.492188 147.042969 " fill-opacity="1" fill-rule="nonzero"/></g></g></g><g fill="#000000" fill-opacity="1"><g transform="translate(38.042774, 298.908066)"><g><path d="M 11.328125 -4.375 C 11.253906 -3.207031 10.851562 -2.195312 10.125 -1.34375 C 9.1875 -0.257812 7.859375 0.28125 6.140625 0.28125 C 4.296875 0.28125 2.863281 -0.351562 1.84375 -1.625 C 0.976562 -2.707031 0.546875 -4.039062 0.546875 -5.625 C 0.546875 -7.269531 1.046875 -8.648438 2.046875 -9.765625 C 3.078125 -10.929688 4.472656 -11.515625 6.234375 -11.515625 C 7.691406 -11.515625 8.910156 -11.0625 9.890625 -10.15625 C 10.722656 -9.363281 11.175781 -8.398438 11.25 -7.265625 L 8.390625 -7.265625 C 8.273438 -7.773438 8.097656 -8.160156 7.859375 -8.421875 C 7.453125 -8.867188 6.894531 -9.09375 6.1875 -9.09375 C 5.300781 -9.09375 4.617188 -8.742188 4.140625 -8.046875 C 3.734375 -7.429688 3.53125 -6.617188 3.53125 -5.609375 C 3.53125 -4.453125 3.789062 -3.566406 4.3125 -2.953125 C 4.769531 -2.410156 5.382812 -2.140625 6.15625 -2.140625 C 6.9375 -2.140625 7.53125 -2.425781 7.9375 -3 C 8.15625 -3.3125 8.304688 -3.769531 8.390625 -4.375 Z M 11.328125 -4.375 "/></g></g></g><g fill="#000000" fill-opacity="1"><g transform="translate(49.740101, 298.908066)"><g><path d="M 6.140625 -11.515625 C 7.878906 -11.515625 9.269531 -10.894531 10.3125 -9.65625 C 11.195312 -8.582031 11.640625 -7.234375 11.640625 -5.609375 C 11.640625 -3.742188 11.066406 -2.257812 9.921875 -1.15625 C 8.910156 -0.195312 7.648438 0.28125 6.140625 0.28125 C 4.359375 0.28125 2.941406 -0.332031 1.890625 -1.5625 C 0.992188 -2.632812 0.546875 -3.984375 0.546875 -5.609375 C 0.546875 -7.484375 1.101562 -8.953125 2.21875 -10.015625 C 3.28125 -11.015625 4.585938 -11.515625 6.140625 -11.515625 Z M 6.125 -9.09375 C 5.269531 -9.09375 4.609375 -8.738281 4.140625 -8.03125 C 3.734375 -7.425781 3.53125 -6.625 3.53125 -5.625 C 3.53125 -4.46875 3.789062 -3.578125 4.3125 -2.953125 C 4.769531 -2.410156 5.378906 -2.140625 6.140625 -2.140625 C 6.929688 -2.140625 7.550781 -2.445312 8 -3.0625 C 8.445312 -3.6875 8.671875 -4.554688 8.671875 -5.671875 C 8.671875 -6.816406 8.410156 -7.691406 7.890625 -8.296875 C 7.441406 -8.828125 6.851562 -9.09375 6.125 -9.09375 Z M 6.125 -9.09375 "/></g></g></g><g fill="#000000" fill-opacity="1"><g transform="translate(61.923513, 298.908066)"><g><path d="M 13.59375 -11.234375 L 13.59375 0 L 10.828125 0 L 10.828125 -2.53125 C 10.828125 -4.144531 10.875 -6.148438 10.96875 -8.546875 C 10.570312 -6.867188 10.164062 -5.382812 9.75 -4.09375 L 8.453125 0 L 6.21875 0 L 4.890625 -3.984375 C 4.503906 -5.140625 4.097656 -6.660156 3.671875 -8.546875 C 3.765625 -6.410156 3.8125 -4.53125 3.8125 -2.90625 L 3.8125 0 L 1.03125 0 L 1.03125 -11.234375 L 5.234375 -11.234375 L 6.453125 -7.328125 C 6.804688 -6.179688 7.109375 -4.878906 7.359375 -3.421875 C 7.703125 -5.097656 8.019531 -6.421875 8.3125 -7.390625 L 9.453125 -11.234375 Z M 13.59375 -11.234375 "/></g></g></g><g fill="#000000" fill-opacity="1"><g transform="translate(76.537338, 298.908066)"><g><path d="M 1.03125 -11.234375 L 5.65625 -11.234375 C 7.144531 -11.234375 8.21875 -11.007812 8.875 -10.5625 C 9.90625 -9.863281 10.421875 -8.816406 10.421875 -7.421875 C 10.421875 -6.273438 10.03125 -5.351562 9.25 -4.65625 C 8.582031 -4.050781 7.597656 -3.75 6.296875 -3.75 L 3.96875 -3.75 L 3.96875 0 L 1.03125 0 Z M 3.96875 -8.8125 L 3.96875 -6.0625 L 5.90625 -6.0625 C 7.007812 -6.0625 7.5625 -6.519531 7.5625 -7.4375 C 7.5625 -8.332031 6.96875 -8.785156 5.78125 -8.796875 Z M 3.96875 -8.8125 "/></g></g></g><g fill="#000000" fill-opacity="1"><g transform="translate(87.356586, 298.908066)"><g><path d="M 10.640625 -11.234375 L 10.640625 -4.546875 C 10.640625 -3.054688 10.328125 -1.9375 9.703125 -1.1875 C 8.890625 -0.207031 7.570312 0.28125 5.75 0.28125 C 3.820312 0.28125 2.445312 -0.269531 1.625 -1.375 C 1.113281 -2.082031 0.859375 -3.148438 0.859375 -4.578125 L 0.859375 -11.234375 L 3.796875 -11.234375 L 3.796875 -4.359375 C 3.796875 -3.578125 3.953125 -3.007812 4.265625 -2.65625 C 4.585938 -2.3125 5.101562 -2.140625 5.8125 -2.140625 C 6.476562 -2.140625 6.960938 -2.3125 7.265625 -2.65625 C 7.566406 -3.007812 7.71875 -3.578125 7.71875 -4.359375 L 7.71875 -11.234375 Z M 10.640625 -11.234375 "/></g></g></g><g fill="#000000" fill-opacity="1"><g transform="translate(98.850078, 298.908066)"><g><path d="M 9.890625 -11.234375 L 9.890625 -8.703125 L 6.53125 -8.703125 L 6.53125 0 L 3.609375 0 L 3.609375 -8.703125 L 0.265625 -8.703125 L 0.265625 -11.234375 Z M 9.890625 -11.234375 "/></g></g></g><g fill="#000000" fill-opacity="1"><g transform="translate(109.010766, 298.908066)"><g><path d="M 10.03125 -11.234375 L 10.03125 -8.8125 L 3.96875 -8.8125 L 3.96875 -6.953125 L 9.5 -6.953125 L 9.5 -4.640625 L 3.96875 -4.640625 L 3.96875 -2.421875 L 10.171875 -2.421875 L 10.171875 0 L 1.03125 0 L 1.03125 -11.234375 Z M 10.03125 -11.234375 "/></g></g></g><g fill="#000000" fill-opacity="1"><g transform="translate(119.798652, 298.908066)"><g><path d="M 1 -11.234375 L 6.546875 -11.234375 C 7.679688 -11.234375 8.546875 -11.054688 9.140625 -10.703125 C 10.160156 -10.097656 10.671875 -9.191406 10.671875 -7.984375 C 10.671875 -7.359375 10.507812 -6.796875 10.1875 -6.296875 C 9.875 -5.804688 9.453125 -5.453125 8.921875 -5.234375 C 9.390625 -5.109375 9.769531 -4.828125 10.0625 -4.390625 C 10.25 -4.097656 10.375 -3.796875 10.4375 -3.484375 C 10.507812 -3.179688 10.59375 -2.484375 10.6875 -1.390625 C 10.757812 -0.703125 10.851562 -0.273438 10.96875 -0.109375 L 11.0625 0 L 8.0625 0 C 7.96875 -0.21875 7.859375 -1.003906 7.734375 -2.359375 C 7.648438 -3.035156 7.460938 -3.503906 7.171875 -3.765625 C 6.878906 -4.035156 6.398438 -4.171875 5.734375 -4.171875 L 3.9375 -4.171875 L 3.9375 0 L 1 0 Z M 3.9375 -8.921875 L 3.9375 -6.28125 L 6.015625 -6.28125 C 7.191406 -6.28125 7.78125 -6.726562 7.78125 -7.625 C 7.78125 -8.488281 7.179688 -8.921875 5.984375 -8.921875 Z M 3.9375 -8.921875 "/></g></g></g><g fill="#000000" fill-opacity="1"><g transform="translate(131.543026, 298.908066)"><g/></g></g><g fill="#000000" fill-opacity="1"><g transform="translate(134.428163, 298.908066)"><g><path d="M 10.71875 -5.171875 C 10.632812 -4.253906 10.140625 -3.441406 9.234375 -2.734375 L 11.59375 0 L 8.328125 0 L 7.546875 -0.953125 C 6.535156 -0.160156 5.5 0.234375 4.4375 0.234375 C 3.351562 0.234375 2.476562 -0.0820312 1.8125 -0.71875 C 1.132812 -1.382812 0.796875 -2.203125 0.796875 -3.171875 C 0.796875 -3.867188 1 -4.503906 1.40625 -5.078125 C 1.8125 -5.660156 2.375 -6.125 3.09375 -6.46875 C 2.445312 -7.21875 2.125 -7.941406 2.125 -8.640625 C 2.125 -9.492188 2.472656 -10.1875 3.171875 -10.71875 C 3.773438 -11.175781 4.503906 -11.40625 5.359375 -11.40625 C 6.335938 -11.40625 7.128906 -11.101562 7.734375 -10.5 C 8.253906 -9.96875 8.515625 -9.320312 8.515625 -8.5625 C 8.515625 -7.351562 7.875 -6.425781 6.59375 -5.78125 L 7.765625 -4.375 C 8.066406 -4.570312 8.285156 -4.835938 8.421875 -5.171875 Z M 5.28125 -7.328125 C 5.96875 -7.742188 6.3125 -8.195312 6.3125 -8.6875 C 6.3125 -8.945312 6.222656 -9.160156 6.046875 -9.328125 C 5.867188 -9.492188 5.644531 -9.578125 5.375 -9.578125 C 5.113281 -9.578125 4.894531 -9.492188 4.71875 -9.328125 C 4.550781 -9.171875 4.46875 -8.972656 4.46875 -8.734375 C 4.46875 -8.347656 4.738281 -7.878906 5.28125 -7.328125 Z M 4.484375 -4.703125 C 3.753906 -4.285156 3.390625 -3.796875 3.390625 -3.234375 C 3.390625 -2.890625 3.5 -2.59375 3.71875 -2.34375 C 3.9375 -2.101562 4.203125 -1.984375 4.515625 -1.984375 C 5.078125 -1.984375 5.613281 -2.238281 6.125 -2.75 Z M 4.484375 -4.703125 "/></g></g></g><g fill="#000000" fill-opacity="1"><g transform="translate(148.885191, 298.908066)"><g><path d="M 11.328125 -4.375 C 11.253906 -3.207031 10.851562 -2.195312 10.125 -1.34375 C 9.1875 -0.257812 7.859375 0.28125 6.140625 0.28125 C 4.296875 0.28125 2.863281 -0.351562 1.84375 -1.625 C 0.976562 -2.707031 0.546875 -4.039062 0.546875 -5.625 C 0.546875 -7.269531 1.046875 -8.648438 2.046875 -9.765625 C 3.078125 -10.929688 4.472656 -11.515625 6.234375 -11.515625 C 7.691406 -11.515625 8.910156 -11.0625 9.890625 -10.15625 C 10.722656 -9.363281 11.175781 -8.398438 11.25 -7.265625 L 8.390625 -7.265625 C 8.273438 -7.773438 8.097656 -8.160156 7.859375 -8.421875 C 7.453125 -8.867188 6.894531 -9.09375 6.1875 -9.09375 C 5.300781 -9.09375 4.617188 -8.742188 4.140625 -8.046875 C 3.734375 -7.429688 3.53125 -6.617188 3.53125 -5.609375 C 3.53125 -4.453125 3.789062 -3.566406 4.3125 -2.953125 C 4.769531 -2.410156 5.382812 -2.140625 6.15625 -2.140625 C 6.9375 -2.140625 7.53125 -2.425781 7.9375 -3 C 8.15625 -3.3125 8.304688 -3.769531 8.390625 -4.375 Z M 11.328125 -4.375 "/></g></g></g><g fill="#000000" fill-opacity="1"><g transform="translate(160.582517, 298.908066)"><g><path d="M 10.828125 -11.234375 L 6.6875 -4.21875 L 6.6875 0 L 3.75 0 L 3.75 -4.21875 L -0.375 -11.234375 L 2.953125 -11.234375 L 4.25 -8.84375 C 4.601562 -8.195312 4.929688 -7.476562 5.234375 -6.6875 C 5.597656 -7.613281 5.957031 -8.390625 6.3125 -9.015625 L 7.546875 -11.234375 Z M 10.828125 -11.234375 "/></g></g></g><g fill="#000000" fill-opacity="1"><g transform="translate(171.009762, 298.908066)"><g><path d="M 1.03125 -11.234375 L 6.4375 -11.234375 C 7.53125 -11.234375 8.359375 -11.09375 8.921875 -10.8125 C 9.890625 -10.332031 10.375 -9.53125 10.375 -8.40625 C 10.375 -7.394531 9.878906 -6.640625 8.890625 -6.140625 C 9.328125 -5.984375 9.65625 -5.816406 9.875 -5.640625 C 10.5625 -5.117188 10.90625 -4.359375 10.90625 -3.359375 C 10.90625 -2.109375 10.398438 -1.179688 9.390625 -0.578125 C 8.753906 -0.191406 7.882812 0 6.78125 0 L 1.03125 0 Z M 3.96875 -8.984375 L 3.96875 -6.8125 L 6.0625 -6.8125 C 7.03125 -6.8125 7.515625 -7.171875 7.515625 -7.890625 C 7.515625 -8.617188 7.003906 -8.984375 5.984375 -8.984375 Z M 3.96875 -4.890625 L 3.96875 -2.3125 L 6.28125 -2.3125 C 7.382812 -2.3125 7.9375 -2.738281 7.9375 -3.59375 C 7.9375 -4.457031 7.363281 -4.890625 6.21875 -4.890625 Z M 3.96875 -4.890625 "/></g></g></g><g fill="#000000" fill-opacity="1"><g transform="translate(182.456207, 298.908066)"><g><path d="M 10.03125 -11.234375 L 10.03125 -8.8125 L 3.96875 -8.8125 L 3.96875 -6.953125 L 9.5 -6.953125 L 9.5 -4.640625 L 3.96875 -4.640625 L 3.96875 -2.421875 L 10.171875 -2.421875 L 10.171875 0 L 1.03125 0 L 1.03125 -11.234375 Z M 10.03125 -11.234375 "/></g></g></g><g fill="#000000" fill-opacity="1"><g transform="translate(193.244093, 298.908066)"><g><path d="M 1 -11.234375 L 6.546875 -11.234375 C 7.679688 -11.234375 8.546875 -11.054688 9.140625 -10.703125 C 10.160156 -10.097656 10.671875 -9.191406 10.671875 -7.984375 C 10.671875 -7.359375 10.507812 -6.796875 10.1875 -6.296875 C 9.875 -5.804688 9.453125 -5.453125 8.921875 -5.234375 C 9.390625 -5.109375 9.769531 -4.828125 10.0625 -4.390625 C 10.25 -4.097656 10.375 -3.796875 10.4375 -3.484375 C 10.507812 -3.179688 10.59375 -2.484375 10.6875 -1.390625 C 10.757812 -0.703125 10.851562 -0.273438 10.96875 -0.109375 L 11.0625 0 L 8.0625 0 C 7.96875 -0.21875 7.859375 -1.003906 7.734375 -2.359375 C 7.648438 -3.035156 7.460938 -3.503906 7.171875 -3.765625 C 6.878906 -4.035156 6.398438 -4.171875 5.734375 -4.171875 L 3.9375 -4.171875 L 3.9375 0 L 1 0 Z M 3.9375 -8.921875 L 3.9375 -6.28125 L 6.015625 -6.28125 C 7.191406 -6.28125 7.78125 -6.726562 7.78125 -7.625 C 7.78125 -8.488281 7.179688 -8.921875 5.984375 -8.921875 Z M 3.9375 -8.921875 "/></g></g></g><g fill="#000000" fill-opacity="1"><g transform="translate(204.988476, 298.908066)"><g/></g></g><g fill="#000000" fill-opacity="1"><g transform="translate(207.873604, 298.908066)"><g><path d="M 9.625 -7.859375 L 6.84375 -7.859375 C 6.800781 -8.773438 6.195312 -9.234375 5.03125 -9.234375 C 4.019531 -9.234375 3.515625 -8.90625 3.515625 -8.25 C 3.515625 -7.945312 3.648438 -7.726562 3.921875 -7.59375 C 4.148438 -7.476562 4.890625 -7.265625 6.140625 -6.953125 C 7.316406 -6.648438 8.171875 -6.332031 8.703125 -6 C 9.628906 -5.425781 10.09375 -4.578125 10.09375 -3.453125 C 10.09375 -2.210938 9.601562 -1.257812 8.625 -0.59375 C 7.78125 -0.0078125 6.664062 0.28125 5.28125 0.28125 C 3.613281 0.28125 2.335938 -0.117188 1.453125 -0.921875 C 0.679688 -1.628906 0.285156 -2.582031 0.265625 -3.78125 L 3.21875 -3.78125 C 3.28125 -2.59375 4.003906 -2 5.390625 -2 C 6.535156 -2 7.109375 -2.378906 7.109375 -3.140625 C 7.109375 -3.492188 6.957031 -3.753906 6.65625 -3.921875 C 6.363281 -4.097656 5.625 -4.351562 4.4375 -4.6875 C 3.007812 -5.09375 2.046875 -5.507812 1.546875 -5.9375 C 0.972656 -6.425781 0.6875 -7.132812 0.6875 -8.0625 C 0.6875 -9.164062 1.148438 -10.039062 2.078125 -10.6875 C 2.878906 -11.238281 3.90625 -11.515625 5.15625 -11.515625 C 6.65625 -11.515625 7.796875 -11.15625 8.578125 -10.4375 C 9.253906 -9.800781 9.601562 -8.941406 9.625 -7.859375 Z M 9.625 -7.859375 "/></g></g></g><g fill="#000000" fill-opacity="1"><g transform="translate(218.44196, 298.908066)"><g><path d="M 10.03125 -11.234375 L 10.03125 -8.8125 L 3.96875 -8.8125 L 3.96875 -6.953125 L 9.5 -6.953125 L 9.5 -4.640625 L 3.96875 -4.640625 L 3.96875 -2.421875 L 10.171875 -2.421875 L 10.171875 0 L 1.03125 0 L 1.03125 -11.234375 Z M 10.03125 -11.234375 "/></g></g></g><g fill="#000000" fill-opacity="1"><g transform="translate(229.229836, 298.908066)"><g><path d="M 11.328125 -4.375 C 11.253906 -3.207031 10.851562 -2.195312 10.125 -1.34375 C 9.1875 -0.257812 7.859375 0.28125 6.140625 0.28125 C 4.296875 0.28125 2.863281 -0.351562 1.84375 -1.625 C 0.976562 -2.707031 0.546875 -4.039062 0.546875 -5.625 C 0.546875 -7.269531 1.046875 -8.648438 2.046875 -9.765625 C 3.078125 -10.929688 4.472656 -11.515625 6.234375 -11.515625 C 7.691406 -11.515625 8.910156 -11.0625 9.890625 -10.15625 C 10.722656 -9.363281 11.175781 -8.398438 11.25 -7.265625 L 8.390625 -7.265625 C 8.273438 -7.773438 8.097656 -8.160156 7.859375 -8.421875 C 7.453125 -8.867188 6.894531 -9.09375 6.1875 -9.09375 C 5.300781 -9.09375 4.617188 -8.742188 4.140625 -8.046875 C 3.734375 -7.429688 3.53125 -6.617188 3.53125 -5.609375 C 3.53125 -4.453125 3.789062 -3.566406 4.3125 -2.953125 C 4.769531 -2.410156 5.382812 -2.140625 6.15625 -2.140625 C 6.9375 -2.140625 7.53125 -2.425781 7.9375 -3 C 8.15625 -3.3125 8.304688 -3.769531 8.390625 -4.375 Z M 11.328125 -4.375 "/></g></g></g><g fill="#000000" fill-opacity="1"><g transform="translate(240.927163, 298.908066)"><g><path d="M 10.640625 -11.234375 L 10.640625 -4.546875 C 10.640625 -3.054688 10.328125 -1.9375 9.703125 -1.1875 C 8.890625 -0.207031 7.570312 0.28125 5.75 0.28125 C 3.820312 0.28125 2.445312 -0.269531 1.625 -1.375 C 1.113281 -2.082031 0.859375 -3.148438 0.859375 -4.578125 L 0.859375 -11.234375 L 3.796875 -11.234375 L 3.796875 -4.359375 C 3.796875 -3.578125 3.953125 -3.007812 4.265625 -2.65625 C 4.585938 -2.3125 5.101562 -2.140625 5.8125 -2.140625 C 6.476562 -2.140625 6.960938 -2.3125 7.265625 -2.65625 C 7.566406 -3.007812 7.71875 -3.578125 7.71875 -4.359375 L 7.71875 -11.234375 Z M 10.640625 -11.234375 "/></g></g></g><g fill="#000000" fill-opacity="1"><g transform="translate(252.420655, 298.908066)"><g><path d="M 1 -11.234375 L 6.546875 -11.234375 C 7.679688 -11.234375 8.546875 -11.054688 9.140625 -10.703125 C 10.160156 -10.097656 10.671875 -9.191406 10.671875 -7.984375 C 10.671875 -7.359375 10.507812 -6.796875 10.1875 -6.296875 C 9.875 -5.804688 9.453125 -5.453125 8.921875 -5.234375 C 9.390625 -5.109375 9.769531 -4.828125 10.0625 -4.390625 C 10.25 -4.097656 10.375 -3.796875 10.4375 -3.484375 C 10.507812 -3.179688 10.59375 -2.484375 10.6875 -1.390625 C 10.757812 -0.703125 10.851562 -0.273438 10.96875 -0.109375 L 11.0625 0 L 8.0625 0 C 7.96875 -0.21875 7.859375 -1.003906 7.734375 -2.359375 C 7.648438 -3.035156 7.460938 -3.503906 7.171875 -3.765625 C 6.878906 -4.035156 6.398438 -4.171875 5.734375 -4.171875 L 3.9375 -4.171875 L 3.9375 0 L 1 0 Z M 3.9375 -8.921875 L 3.9375 -6.28125 L 6.015625 -6.28125 C 7.191406 -6.28125 7.78125 -6.726562 7.78125 -7.625 C 7.78125 -8.488281 7.179688 -8.921875 5.984375 -8.921875 Z M 3.9375 -8.921875 "/></g></g></g><g fill="#000000" fill-opacity="1"><g transform="translate(264.165038, 298.908066)"><g><path d="M 3.96875 -11.234375 L 3.96875 0 L 1.03125 0 L 1.03125 -11.234375 Z M 3.96875 -11.234375 "/></g></g></g><g fill="#000000" fill-opacity="1"><g transform="translate(269.151288, 298.908066)"><g><path d="M 9.890625 -11.234375 L 9.890625 -8.703125 L 6.53125 -8.703125 L 6.53125 0 L 3.609375 0 L 3.609375 -8.703125 L 0.265625 -8.703125 L 0.265625 -11.234375 Z M 9.890625 -11.234375 "/></g></g></g><g fill="#000000" fill-opacity="1"><g transform="translate(279.311976, 298.908066)"><g><path d="M 10.828125 -11.234375 L 6.6875 -4.21875 L 6.6875 0 L 3.75 0 L 3.75 -4.21875 L -0.375 -11.234375 L 2.953125 -11.234375 L 4.25 -8.84375 C 4.601562 -8.195312 4.929688 -7.476562 5.234375 -6.6875 C 5.597656 -7.613281 5.957031 -8.390625 6.3125 -9.015625 L 7.546875 -11.234375 Z M 10.828125 -11.234375 "/></g></g></g><g fill="#000000" fill-opacity="1"><g transform="translate(289.739222, 298.908066)"><g/></g></g><g fill="#000000" fill-opacity="1"><g transform="translate(292.624349, 298.908066)"><g><path d="M 11.328125 -4.375 C 11.253906 -3.207031 10.851562 -2.195312 10.125 -1.34375 C 9.1875 -0.257812 7.859375 0.28125 6.140625 0.28125 C 4.296875 0.28125 2.863281 -0.351562 1.84375 -1.625 C 0.976562 -2.707031 0.546875 -4.039062 0.546875 -5.625 C 0.546875 -7.269531 1.046875 -8.648438 2.046875 -9.765625 C 3.078125 -10.929688 4.472656 -11.515625 6.234375 -11.515625 C 7.691406 -11.515625 8.910156 -11.0625 9.890625 -10.15625 C 10.722656 -9.363281 11.175781 -8.398438 11.25 -7.265625 L 8.390625 -7.265625 C 8.273438 -7.773438 8.097656 -8.160156 7.859375 -8.421875 C 7.453125 -8.867188 6.894531 -9.09375 6.1875 -9.09375 C 5.300781 -9.09375 4.617188 -8.742188 4.140625 -8.046875 C 3.734375 -7.429688 3.53125 -6.617188 3.53125 -5.609375 C 3.53125 -4.453125 3.789062 -3.566406 4.3125 -2.953125 C 4.769531 -2.410156 5.382812 -2.140625 6.15625 -2.140625 C 6.9375 -2.140625 7.53125 -2.425781 7.9375 -3 C 8.15625 -3.3125 8.304688 -3.769531 8.390625 -4.375 Z M 11.328125 -4.375 "/></g></g></g><g fill="#000000" fill-opacity="1"><g transform="translate(304.321675, 298.908066)"><g><path d="M 9.234375 -2.53125 L 9.234375 0 L 1.03125 0 L 1.03125 -11.234375 L 3.96875 -11.234375 L 3.96875 -2.53125 Z M 9.234375 -2.53125 "/></g></g></g><g fill="#000000" fill-opacity="1"><g transform="translate(313.996287, 298.908066)"><g><path d="M 10.640625 -11.234375 L 10.640625 -4.546875 C 10.640625 -3.054688 10.328125 -1.9375 9.703125 -1.1875 C 8.890625 -0.207031 7.570312 0.28125 5.75 0.28125 C 3.820312 0.28125 2.445312 -0.269531 1.625 -1.375 C 1.113281 -2.082031 0.859375 -3.148438 0.859375 -4.578125 L 0.859375 -11.234375 L 3.796875 -11.234375 L 3.796875 -4.359375 C 3.796875 -3.578125 3.953125 -3.007812 4.265625 -2.65625 C 4.585938 -2.3125 5.101562 -2.140625 5.8125 -2.140625 C 6.476562 -2.140625 6.960938 -2.3125 7.265625 -2.65625 C 7.566406 -3.007812 7.71875 -3.578125 7.71875 -4.359375 L 7.71875 -11.234375 Z M 10.640625 -11.234375 "/></g></g></g><g fill="#000000" fill-opacity="1"><g transform="translate(325.489779, 298.908066)"><g><path d="M 1.03125 -11.234375 L 6.4375 -11.234375 C 7.53125 -11.234375 8.359375 -11.09375 8.921875 -10.8125 C 9.890625 -10.332031 10.375 -9.53125 10.375 -8.40625 C 10.375 -7.394531 9.878906 -6.640625 8.890625 -6.140625 C 9.328125 -5.984375 9.65625 -5.816406 9.875 -5.640625 C 10.5625 -5.117188 10.90625 -4.359375 10.90625 -3.359375 C 10.90625 -2.109375 10.398438 -1.179688 9.390625 -0.578125 C 8.753906 -0.191406 7.882812 0 6.78125 0 L 1.03125 0 Z M 3.96875 -8.984375 L 3.96875 -6.8125 L 6.0625 -6.8125 C 7.03125 -6.8125 7.515625 -7.171875 7.515625 -7.890625 C 7.515625 -8.617188 7.003906 -8.984375 5.984375 -8.984375 Z M 3.96875 -4.890625 L 3.96875 -2.3125 L 6.28125 -2.3125 C 7.382812 -2.3125 7.9375 -2.738281 7.9375 -3.59375 C 7.9375 -4.457031 7.363281 -4.890625 6.21875 -4.890625 Z M 3.96875 -4.890625 "/></g></g></g><g fill="#000000" fill-opacity="1"><g transform="translate(38.263904, 277.333819)"><g><path d="M 3.5 -2.734375 L 3.5 -0.890625 C 3.5 0.0664062 3.722656 0.738281 4.171875 1.125 C 4.617188 1.519531 5.390625 1.71875 6.484375 1.71875 C 7.410156 1.71875 8.085938 1.585938 8.515625 1.328125 C 8.953125 1.078125 9.238281 0.632812 9.375 0 L 8.59375 0 L 7.5625 -1.28125 L 7.5625 -2.03125 L 12.609375 -2.03125 L 12.609375 0 L 11.84375 0 C 11.707031 1.34375 11.117188 2.34375 10.078125 3 C 9.265625 3.5 8.296875 3.75 7.171875 3.75 L 5.78125 3.75 C 4.476562 3.75 3.410156 3.425781 2.578125 2.78125 C 1.578125 2 1.078125 0.875 1.078125 -0.59375 L 1.078125 -1.75 L 2.3125 -2.734375 Z M 4.984375 4.65625 C 5.316406 4.65625 5.601562 4.773438 5.84375 5.015625 C 6.09375 5.253906 6.21875 5.550781 6.21875 5.90625 C 6.21875 6.238281 6.09375 6.519531 5.84375 6.75 C 5.601562 6.988281 5.316406 7.109375 4.984375 7.109375 C 4.640625 7.109375 4.347656 6.988281 4.109375 6.75 C 3.878906 6.519531 3.765625 6.238281 3.765625 5.90625 C 3.765625 5.550781 3.878906 5.253906 4.109375 5.015625 C 4.347656 4.773438 4.640625 4.65625 4.984375 4.65625 Z M 7.796875 4.65625 C 8.128906 4.65625 8.414062 4.773438 8.65625 5.015625 C 8.894531 5.253906 9.015625 5.550781 9.015625 5.90625 C 9.015625 6.238281 8.894531 6.519531 8.65625 6.75 C 8.414062 6.988281 8.128906 7.109375 7.796875 7.109375 C 7.453125 7.109375 7.160156 6.988281 6.921875 6.75 C 6.691406 6.519531 6.578125 6.238281 6.578125 5.90625 C 6.578125 5.550781 6.691406 5.253906 6.921875 5.015625 C 7.160156 4.773438 7.453125 4.65625 7.796875 4.65625 Z M 7.796875 4.65625 "/></g></g></g><g fill="#000000" fill-opacity="1"><g transform="translate(49.334032, 277.333819)"><g><path d="M 3.953125 -10.671875 C 4.296875 -10.671875 4.582031 -10.550781 4.8125 -10.3125 C 5.050781 -10.082031 5.171875 -9.789062 5.171875 -9.4375 C 5.171875 -9.101562 5.050781 -8.816406 4.8125 -8.578125 C 4.582031 -8.335938 4.296875 -8.21875 3.953125 -8.21875 C 3.617188 -8.21875 3.332031 -8.335938 3.09375 -8.578125 C 2.851562 -8.816406 2.734375 -9.101562 2.734375 -9.4375 C 2.734375 -9.78125 2.851562 -10.070312 3.09375 -10.3125 C 3.332031 -10.550781 3.617188 -10.671875 3.953125 -10.671875 Z M 5.171875 -7.21875 L 5.171875 -1.9375 C 5.171875 -1.476562 5.019531 -1.066406 4.71875 -0.703125 C 4.320312 -0.234375 3.820312 0 3.21875 0 L -0.0625 0 L -0.0625 -2.03125 L 2.53125 -2.03125 C 2.59375 -2.03125 2.644531 -2.046875 2.6875 -2.078125 C 2.738281 -2.117188 2.765625 -2.175781 2.765625 -2.25 L 2.765625 -7.21875 Z M 5.171875 -7.21875 "/></g></g></g><g fill="#000000" fill-opacity="1"><g transform="translate(55.590384, 277.333819)"><g><path d="M 3.5 -11.234375 L 3.5 -0.59375 L 2.28125 0.390625 L 1.078125 0.390625 L 1.078125 -11.234375 Z M 3.5 -11.234375 "/></g></g></g><g fill="#000000" fill-opacity="1"><g transform="translate(60.168966, 277.333819)"><g><path d="M 5.703125 -7.21875 L 5.703125 -2.03125 L 6.5 -2.03125 L 6.5 0 L 5.671875 0 C 5.554688 1.195312 5.035156 2.148438 4.109375 2.859375 C 3.328125 3.429688 2.40625 3.71875 1.34375 3.71875 C 1.226562 3.71875 1.046875 3.710938 0.796875 3.703125 L -0.1875 2.46875 L -0.1875 1.625 C -0.15625 1.632812 -0.0976562 1.644531 -0.015625 1.65625 C 0.253906 1.707031 0.492188 1.734375 0.703125 1.734375 C 1.578125 1.710938 2.222656 1.492188 2.640625 1.078125 C 3.066406 0.648438 3.28125 0 3.28125 -0.875 L 3.28125 -7.21875 Z M 5.703125 -7.21875 "/></g></g></g><g fill="#000000" fill-opacity="1"><g transform="translate(66.613475, 277.333819)"><g><path d="M 5.171875 -7.21875 L 5.171875 -2.171875 C 5.171875 -2.128906 5.175781 -2.082031 5.1875 -2.03125 L 5.96875 -2.03125 L 5.96875 0 L 5.46875 0 L 4.78125 -0.71875 L 4.75 -0.71875 C 4.351562 -0.238281 3.84375 0 3.21875 0 L -0.0625 0 L -0.0625 -2.03125 L 2.453125 -2.03125 C 2.546875 -2.03125 2.617188 -2.0625 2.671875 -2.125 C 2.734375 -2.175781 2.765625 -2.25 2.765625 -2.34375 L 2.765625 -7.21875 Z M 3.953125 0.71875 C 4.285156 0.71875 4.570312 0.835938 4.8125 1.078125 C 5.050781 1.316406 5.171875 1.609375 5.171875 1.953125 C 5.171875 2.296875 5.050781 2.585938 4.8125 2.828125 C 4.570312 3.066406 4.285156 3.1875 3.953125 3.1875 C 3.609375 3.1875 3.316406 3.066406 3.078125 2.828125 C 2.847656 2.585938 2.734375 2.296875 2.734375 1.953125 C 2.734375 1.609375 2.847656 1.316406 3.078125 1.078125 C 3.316406 0.835938 3.609375 0.71875 3.953125 0.71875 Z M 3.953125 0.71875 "/></g></g></g><g fill="#000000" fill-opacity="1"><g transform="translate(72.524861, 277.333819)"><g><path d="M 5.171875 -7.21875 L 5.171875 -2.171875 C 5.171875 -2.128906 5.175781 -2.082031 5.1875 -2.03125 L 5.984375 -2.03125 L 5.984375 0 L 5.484375 0 L 4.796875 -0.71875 L 4.75 -0.71875 C 4.363281 -0.238281 3.859375 0 3.234375 0 L -0.046875 0 L -0.046875 -2.03125 L 2.453125 -2.03125 C 2.554688 -2.03125 2.632812 -2.0625 2.6875 -2.125 C 2.738281 -2.175781 2.765625 -2.25 2.765625 -2.34375 L 2.765625 -7.21875 Z M 1.125 0.71875 C 1.46875 0.71875 1.757812 0.835938 2 1.078125 C 2.25 1.316406 2.375 1.609375 2.375 1.953125 C 2.375 2.296875 2.25 2.585938 2 2.828125 C 1.757812 3.066406 1.46875 3.1875 1.125 3.1875 C 0.789062 3.1875 0.503906 3.066406 0.265625 2.828125 C 0.0234375 2.585938 -0.09375 2.296875 -0.09375 1.953125 C -0.09375 1.609375 0.0234375 1.316406 0.265625 1.078125 C 0.503906 0.835938 0.789062 0.71875 1.125 0.71875 Z M 3.9375 0.71875 C 4.28125 0.71875 4.570312 0.835938 4.8125 1.078125 C 5.050781 1.316406 5.171875 1.609375 5.171875 1.953125 C 5.171875 2.296875 5.050781 2.585938 4.8125 2.828125 C 4.570312 3.066406 4.28125 3.1875 3.9375 3.1875 C 3.601562 3.1875 3.316406 3.066406 3.078125 2.828125 C 2.847656 2.585938 2.734375 2.296875 2.734375 1.953125 C 2.734375 1.609375 2.847656 1.316406 3.078125 1.078125 C 3.316406 0.835938 3.601562 0.71875 3.9375 0.71875 Z M 3.9375 0.71875 "/></g></g></g><g fill="#000000" fill-opacity="1"><g transform="translate(78.436247, 277.333819)"><g><path d="M 2.84375 -2.03125 L 2.84375 0 L -0.0625 0 L -0.0625 -2.03125 Z M 2.84375 -2.03125 "/></g></g></g><g fill="#000000" fill-opacity="1"><g transform="translate(81.2273, 277.333819)"><g><path d="M 2.84375 -2.03125 L 2.84375 0 L -0.0625 0 L -0.0625 -2.03125 Z M 2.84375 -2.03125 "/></g></g></g><g fill="#000000" fill-opacity="1"><g transform="translate(84.018353, 277.333819)"><g><path d="M 2.84375 -2.03125 L 2.84375 0 L -0.0625 0 L -0.0625 -2.03125 Z M 2.84375 -2.03125 "/></g></g></g><g fill="#000000" fill-opacity="1"><g transform="translate(86.809406, 277.333819)"><g><path d="M 18.109375 -7.21875 L 18.109375 -2.625 C 18.109375 -2.519531 18.113281 -2.347656 18.125 -2.109375 L 18.125 -2.03125 L 18.90625 -2.03125 L 18.90625 0 L 18.3125 0 L 17.734375 -0.734375 L 17.6875 -0.734375 C 17.289062 -0.242188 16.78125 0 16.15625 0 L 12.546875 0 L 11.96875 -0.734375 L 11.921875 -0.734375 C 11.535156 -0.242188 11.03125 0 10.40625 0 L 6.796875 0 L 6.21875 -0.734375 L 6.171875 -0.734375 C 5.773438 -0.242188 5.265625 0 4.640625 0 L -0.0625 0 L -0.0625 -2.03125 L 3.953125 -2.03125 C 4.097656 -2.03125 4.171875 -2.101562 4.171875 -2.25 L 4.171875 -5.40625 L 6.59375 -5.40625 L 6.59375 -2.609375 C 6.59375 -2.503906 6.597656 -2.347656 6.609375 -2.140625 L 6.609375 -2.03125 L 9.703125 -2.03125 C 9.859375 -2.03125 9.9375 -2.101562 9.9375 -2.25 L 9.9375 -6.328125 L 12.34375 -6.328125 L 12.34375 -2.6875 C 12.34375 -2.507812 12.347656 -2.289062 12.359375 -2.03125 L 15.46875 -2.03125 C 15.613281 -2.03125 15.6875 -2.101562 15.6875 -2.25 L 15.6875 -7.21875 Z M 18.109375 -7.21875 "/></g></g></g><g fill="#000000" fill-opacity="1"><g transform="translate(105.641163, 277.333819)"><g><path d="M 5.171875 -11.234375 L 5.171875 -1.9375 C 5.171875 -1.476562 5.023438 -1.066406 4.734375 -0.703125 C 4.335938 -0.234375 3.832031 0 3.21875 0 L -0.0625 0 L -0.0625 -2.03125 L 2.53125 -2.03125 C 2.59375 -2.03125 2.644531 -2.046875 2.6875 -2.078125 C 2.738281 -2.117188 2.765625 -2.175781 2.765625 -2.25 L 2.765625 -11.234375 Z M 5.171875 -11.234375 "/></g></g></g><g fill="#000000" fill-opacity="1"><g transform="translate(111.897514, 277.333819)"><g><path d="M 3.5 -11.234375 L 3.5 -0.59375 L 2.28125 0.390625 L 1.078125 0.390625 L 1.078125 -11.234375 Z M 3.5 -11.234375 "/></g></g></g><g fill="#000000" fill-opacity="1"><g transform="translate(116.476096, 277.333819)"><g/></g></g><g fill="#000000" fill-opacity="1"><g transform="translate(119.361233, 277.333819)"><g><path d="M 6.359375 -7.40625 C 6.703125 -7.40625 6.988281 -7.285156 7.21875 -7.046875 C 7.457031 -6.816406 7.578125 -6.53125 7.578125 -6.1875 C 7.578125 -5.832031 7.457031 -5.535156 7.21875 -5.296875 C 6.976562 -5.066406 6.691406 -4.953125 6.359375 -4.953125 C 6.015625 -4.953125 5.722656 -5.070312 5.484375 -5.3125 C 5.242188 -5.550781 5.125 -5.84375 5.125 -6.1875 C 5.125 -6.519531 5.238281 -6.804688 5.46875 -7.046875 C 5.707031 -7.285156 6.003906 -7.40625 6.359375 -7.40625 Z M 11.796875 -7.21875 L 11.796875 -2.03125 L 12.59375 -2.03125 L 12.59375 0 L 11.765625 0 C 11.648438 1.207031 11.148438 2.148438 10.265625 2.828125 C 9.421875 3.441406 8.363281 3.75 7.09375 3.75 L 5.703125 3.75 C 4.222656 3.75 3.054688 3.34375 2.203125 2.53125 C 1.398438 1.757812 1 0.71875 1 -0.59375 L 1 -3 L 2.234375 -3.96875 L 3.421875 -3.96875 L 3.421875 -0.890625 C 3.421875 0.0664062 3.644531 0.738281 4.09375 1.125 C 4.539062 1.519531 5.3125 1.71875 6.40625 1.71875 C 7.488281 1.71875 8.25 1.53125 8.6875 1.15625 C 9.144531 0.75 9.375 0.0664062 9.375 -0.890625 L 9.375 -7.21875 Z M 11.796875 -7.21875 "/></g></g></g><g fill="#000000" fill-opacity="1"><g transform="translate(131.968009, 277.333819)"><g><path d="M 2.84375 -2.03125 L 2.84375 0 L -0.0625 0 L -0.0625 -2.03125 Z M 2.84375 -2.03125 "/></g></g></g><g fill="#000000" fill-opacity="1"><g transform="translate(134.759062, 277.333819)"><g><path d="M 2.84375 -2.03125 L 2.84375 0 L -0.0625 0 L -0.0625 -2.03125 Z M 2.84375 -2.03125 "/></g></g></g><g fill="#000000" fill-opacity="1"><g transform="translate(137.550115, 277.333819)"><g><path d="M 2.84375 -2.03125 L 2.84375 0 L -0.0625 0 L -0.0625 -2.03125 Z M 2.84375 -2.03125 "/></g></g></g><g fill="#000000" fill-opacity="1"><g transform="translate(140.341168, 277.333819)"><g><path d="M 2.765625 -4.46875 C 2.765625 -5.351562 3.085938 -6.078125 3.734375 -6.640625 C 4.316406 -7.140625 5.125 -7.390625 6.15625 -7.390625 C 7.03125 -7.390625 7.769531 -7.171875 8.375 -6.734375 C 9.28125 -6.066406 9.734375 -5.066406 9.734375 -3.734375 C 9.734375 -2.523438 9.441406 -1.519531 8.859375 -0.71875 C 8.265625 0.0703125 7.476562 0.46875 6.5 0.46875 C 5.644531 0.46875 4.972656 0.15625 4.484375 -0.46875 C 4.109375 -0.15625 3.6875 0 3.21875 0 L -0.0625 0 L -0.0625 -2.03125 L 2.53125 -2.03125 C 2.601562 -2.03125 2.660156 -2.050781 2.703125 -2.09375 C 2.742188 -2.144531 2.765625 -2.195312 2.765625 -2.25 Z M 5.171875 -2.03125 C 5.410156 -1.71875 5.722656 -1.5625 6.109375 -1.5625 C 6.484375 -1.5625 6.785156 -1.738281 7.015625 -2.09375 C 7.242188 -2.457031 7.359375 -2.929688 7.359375 -3.515625 C 7.359375 -4.140625 7.238281 -4.613281 7 -4.9375 C 6.769531 -5.226562 6.457031 -5.375 6.0625 -5.375 C 5.789062 -5.375 5.566406 -5.28125 5.390625 -5.09375 C 5.242188 -4.90625 5.171875 -4.691406 5.171875 -4.453125 Z M 5.171875 -2.03125 "/></g></g></g><g fill="#000000" fill-opacity="1"><g transform="translate(150.799775, 277.333819)"><g><path d="M 1.5 -11.296875 C 1.363281 -11.597656 1.296875 -11.863281 1.296875 -12.09375 C 1.296875 -12.5625 1.429688 -12.941406 1.703125 -13.234375 C 1.984375 -13.523438 2.335938 -13.671875 2.765625 -13.671875 C 3.066406 -13.671875 3.390625 -13.625 3.734375 -13.53125 L 3.734375 -12.546875 C 3.472656 -12.617188 3.273438 -12.65625 3.140625 -12.65625 C 2.753906 -12.65625 2.5625 -12.429688 2.5625 -11.984375 C 2.5625 -11.796875 2.601562 -11.644531 2.6875 -11.53125 C 2.789062 -11.375 2.945312 -11.296875 3.15625 -11.296875 L 4.25 -11.296875 L 4.25 -10.828125 L 3.828125 -10.296875 L 0.9375 -10.296875 L 0.9375 -11.296875 Z M 9.265625 -11.234375 L 9.265625 -1.9375 C 9.265625 -1.425781 9.085938 -0.984375 8.734375 -0.609375 C 8.359375 -0.203125 7.890625 0 7.328125 0 L 1.53125 0 L 0.546875 -1.21875 L 0.546875 -2.03125 L 4 -2.03125 L 1.515625 -9.296875 L 3.734375 -9.296875 L 6.21875 -2.03125 L 6.640625 -2.03125 C 6.703125 -2.03125 6.757812 -2.054688 6.8125 -2.109375 C 6.84375 -2.140625 6.859375 -2.1875 6.859375 -2.25 L 6.859375 -11.234375 Z M 9.265625 -11.234375 "/></g></g></g><g fill="#000000" fill-opacity="1"><g transform="translate(161.148622, 277.333819)"><g><path d="M 3.5 -11.234375 L 3.5 -0.59375 L 2.28125 0.390625 L 1.078125 0.390625 L 1.078125 -11.234375 Z M 3.5 -11.234375 "/></g></g></g><g fill="#000000" fill-opacity="1"><g transform="translate(165.727204, 277.333819)"><g/></g></g><g fill="#000000" fill-opacity="1"><g transform="translate(168.612341, 277.333819)"><g><path d="M 5.34375 0.015625 C 5 0.0976562 4.675781 0.140625 4.375 0.140625 C 3.320312 0.140625 2.441406 -0.300781 1.734375 -1.1875 C 1.148438 -1.925781 0.859375 -2.757812 0.859375 -3.6875 C 0.859375 -4.75 1.179688 -5.628906 1.828125 -6.328125 C 2.523438 -7.046875 3.429688 -7.40625 4.546875 -7.40625 C 5.390625 -7.40625 6.101562 -7.195312 6.6875 -6.78125 C 7.457031 -6.238281 7.84375 -5.46875 7.84375 -4.46875 L 7.84375 -0.5625 C 7.84375 0.84375 7.363281 1.941406 6.40625 2.734375 C 5.59375 3.398438 4.578125 3.734375 3.359375 3.734375 L 2.953125 3.703125 L 1.953125 2.46875 L 1.953125 1.625 C 1.992188 1.632812 2.054688 1.644531 2.140625 1.65625 C 2.410156 1.707031 2.648438 1.734375 2.859375 1.734375 C 3.742188 1.710938 4.394531 1.484375 4.8125 1.046875 C 5.0625 0.785156 5.238281 0.441406 5.34375 0.015625 Z M 5.421875 -4.453125 C 5.421875 -4.722656 5.332031 -4.945312 5.15625 -5.125 C 4.988281 -5.289062 4.78125 -5.375 4.53125 -5.375 C 4.132812 -5.375 3.820312 -5.226562 3.59375 -4.9375 C 3.363281 -4.65625 3.25 -4.257812 3.25 -3.75 C 3.25 -3.1875 3.382812 -2.726562 3.65625 -2.375 C 3.925781 -2.019531 4.28125 -1.84375 4.71875 -1.84375 C 4.9375 -1.84375 5.171875 -1.878906 5.421875 -1.953125 Z M 5.421875 -4.453125 "/></g></g></g><g fill="#000000" fill-opacity="1"><g transform="translate(177.330456, 277.333819)"><g/></g></g><g fill="#000000" fill-opacity="1"><g transform="translate(180.215593, 277.333819)"><g><path d="M 3.5 -2.734375 L 3.5 -0.890625 C 3.5 0.0664062 3.722656 0.738281 4.171875 1.125 C 4.617188 1.519531 5.390625 1.71875 6.484375 1.71875 C 7.410156 1.71875 8.085938 1.585938 8.515625 1.328125 C 8.953125 1.078125 9.238281 0.632812 9.375 0 L 8.59375 0 L 7.5625 -1.28125 L 7.5625 -2.03125 L 12.609375 -2.03125 L 12.609375 0 L 11.84375 0 C 11.707031 1.34375 11.117188 2.34375 10.078125 3 C 9.265625 3.5 8.296875 3.75 7.171875 3.75 L 5.78125 3.75 C 4.476562 3.75 3.410156 3.425781 2.578125 2.78125 C 1.578125 2 1.078125 0.875 1.078125 -0.59375 L 1.078125 -1.75 L 2.3125 -2.734375 Z M 4.984375 4.65625 C 5.316406 4.65625 5.601562 4.773438 5.84375 5.015625 C 6.09375 5.253906 6.21875 5.550781 6.21875 5.90625 C 6.21875 6.238281 6.09375 6.519531 5.84375 6.75 C 5.601562 6.988281 5.316406 7.109375 4.984375 7.109375 C 4.640625 7.109375 4.347656 6.988281 4.109375 6.75 C 3.878906 6.519531 3.765625 6.238281 3.765625 5.90625 C 3.765625 5.550781 3.878906 5.253906 4.109375 5.015625 C 4.347656 4.773438 4.640625 4.65625 4.984375 4.65625 Z M 7.796875 4.65625 C 8.128906 4.65625 8.414062 4.773438 8.65625 5.015625 C 8.894531 5.253906 9.015625 5.550781 9.015625 5.90625 C 9.015625 6.238281 8.894531 6.519531 8.65625 6.75 C 8.414062 6.988281 8.128906 7.109375 7.796875 7.109375 C 7.453125 7.109375 7.160156 6.988281 6.921875 6.75 C 6.691406 6.519531 6.578125 6.238281 6.578125 5.90625 C 6.578125 5.550781 6.691406 5.253906 6.921875 5.015625 C 7.160156 4.773438 7.453125 4.65625 7.796875 4.65625 Z M 7.796875 4.65625 "/></g></g></g><g fill="#000000" fill-opacity="1"><g transform="translate(191.285721, 277.333819)"><g><path d="M 5.171875 -11.234375 L 5.171875 -1.9375 C 5.171875 -1.476562 5.023438 -1.066406 4.734375 -0.703125 C 4.335938 -0.234375 3.832031 0 3.21875 0 L -0.0625 0 L -0.0625 -2.03125 L 2.53125 -2.03125 C 2.59375 -2.03125 2.644531 -2.046875 2.6875 -2.078125 C 2.738281 -2.117188 2.765625 -2.175781 2.765625 -2.25 L 2.765625 -11.234375 Z M 5.171875 -11.234375 "/></g></g></g><g fill="#000000" fill-opacity="1"><g transform="translate(197.542072, 277.333819)"><g><path d="M 0.4375 -10.78125 C 0.820312 -11.5625 1.316406 -11.953125 1.921875 -11.953125 C 2.222656 -11.953125 2.625 -11.832031 3.125 -11.59375 C 3.1875 -11.5625 3.238281 -11.539062 3.28125 -11.53125 C 3.550781 -11.394531 3.765625 -11.328125 3.921875 -11.328125 C 4.179688 -11.328125 4.441406 -11.515625 4.703125 -11.890625 L 5.40625 -11.359375 C 4.925781 -10.648438 4.378906 -10.296875 3.765625 -10.296875 C 3.390625 -10.296875 2.976562 -10.414062 2.53125 -10.65625 C 2.269531 -10.800781 2.070312 -10.875 1.9375 -10.875 C 1.726562 -10.875 1.429688 -10.6875 1.046875 -10.3125 Z M 9.265625 -11.234375 L 9.265625 -1.9375 C 9.265625 -1.425781 9.085938 -0.984375 8.734375 -0.609375 C 8.347656 -0.203125 7.878906 0 7.328125 0 L 1.53125 0 L 0.546875 -1.21875 L 0.546875 -2.03125 L 4 -2.03125 L 1.515625 -9.296875 L 3.734375 -9.296875 L 6.21875 -2.03125 L 6.640625 -2.03125 C 6.703125 -2.03125 6.757812 -2.054688 6.8125 -2.109375 C 6.84375 -2.140625 6.859375 -2.1875 6.859375 -2.25 L 6.859375 -11.234375 Z M 9.265625 -11.234375 "/></g></g></g><g fill="#000000" fill-opacity="1"><g transform="translate(207.890919, 277.333819)"><g><path d="M 3.5 -11.234375 L 3.5 -0.59375 L 2.28125 0.390625 L 1.078125 0.390625 L 1.078125 -11.234375 Z M 3.5 -11.234375 "/></g></g></g><g fill="#000000" fill-opacity="1"><g transform="translate(212.469501, 277.333819)"><g/></g></g><g fill="#000000" fill-opacity="1"><g transform="translate(215.354629, 277.333819)"><g><path d="M 14.65625 -7.21875 L 14.65625 -2.171875 C 14.65625 -2.128906 14.660156 -2.082031 14.671875 -2.03125 L 15.453125 -2.03125 L 15.453125 0 L 14.9375 0 L 14.28125 -0.71875 L 14.234375 -0.71875 C 13.828125 -0.238281 13.316406 0 12.703125 0 L 4.078125 0 C 3.359375 0 2.726562 -0.226562 2.1875 -0.6875 C 1.445312 -1.289062 1.078125 -2.078125 1.078125 -3.046875 L 1.078125 -5.09375 L 2.3125 -6.09375 L 3.5 -6.09375 L 3.5 -3.046875 C 3.5 -2.722656 3.613281 -2.460938 3.84375 -2.265625 C 4.019531 -2.109375 4.222656 -2.03125 4.453125 -2.03125 L 11.921875 -2.03125 C 12.023438 -2.03125 12.109375 -2.066406 12.171875 -2.140625 C 12.210938 -2.203125 12.234375 -2.269531 12.234375 -2.34375 L 12.234375 -7.21875 Z M 7.875 0.71875 C 8.21875 0.71875 8.503906 0.835938 8.734375 1.078125 C 8.972656 1.316406 9.09375 1.609375 9.09375 1.953125 C 9.09375 2.296875 8.972656 2.585938 8.734375 2.828125 C 8.503906 3.066406 8.21875 3.1875 7.875 3.1875 C 7.539062 3.1875 7.253906 3.066406 7.015625 2.828125 C 6.773438 2.585938 6.65625 2.296875 6.65625 1.953125 C 6.65625 1.609375 6.773438 1.316406 7.015625 1.078125 C 7.253906 0.835938 7.539062 0.71875 7.875 0.71875 Z M 7.875 0.71875 "/></g></g></g><g fill="#000000" fill-opacity="1"><g transform="translate(230.736773, 277.333819)"><g><path d="M 18.109375 -7.21875 L 18.109375 -1.9375 C 18.109375 -1.40625 17.914062 -0.945312 17.53125 -0.5625 C 17.144531 -0.1875 16.6875 0 16.15625 0 L 12.625 0 L 11.96875 -0.734375 L 11.921875 -0.734375 C 11.535156 -0.242188 11.03125 0 10.40625 0 L 6.875 0 L 6.21875 -0.734375 L 6.171875 -0.734375 C 5.773438 -0.242188 5.265625 0 4.640625 0 L -0.0625 0 L -0.0625 -2.03125 L 3.953125 -2.03125 C 4.097656 -2.03125 4.171875 -2.101562 4.171875 -2.25 L 4.171875 -5.40625 L 6.59375 -5.40625 L 6.59375 -2.953125 C 6.59375 -2.796875 6.597656 -2.550781 6.609375 -2.21875 L 6.609375 -2.03125 L 9.703125 -2.03125 C 9.859375 -2.03125 9.9375 -2.101562 9.9375 -2.25 L 9.9375 -6.328125 L 12.34375 -6.328125 L 12.34375 -2.6875 C 12.34375 -2.507812 12.347656 -2.289062 12.359375 -2.03125 L 15.46875 -2.03125 C 15.613281 -2.03125 15.6875 -2.101562 15.6875 -2.25 L 15.6875 -7.21875 Z M 18.109375 -7.21875 "/></g></g></g><g fill="#000000" fill-opacity="1"><g transform="translate(249.92918, 277.333819)"><g><path d="M 3.5 -11.234375 L 3.5 -2.25 C 3.5 -2.226562 3.503906 -2.195312 3.515625 -2.15625 L 3.53125 -2.140625 C 3.5625 -2.066406 3.625 -2.03125 3.71875 -2.03125 L 4.296875 -2.03125 L 4.296875 0 L 3.03125 0 C 2.519531 0 2.066406 -0.179688 1.671875 -0.546875 C 1.273438 -0.929688 1.078125 -1.394531 1.078125 -1.9375 L 1.078125 -11.234375 Z M 3.5 -11.234375 "/></g></g></g><g fill="#000000" fill-opacity="1"><g transform="translate(254.162796, 277.333819)"><g><path d="M 2.84375 -2.03125 L 2.84375 0 L -0.0625 0 L -0.0625 -2.03125 Z M 2.84375 -2.03125 "/></g></g></g><g fill="#000000" fill-opacity="1"><g transform="translate(256.95385, 277.333819)"><g><path d="M 2.84375 -2.03125 L 2.84375 0 L -0.0625 0 L -0.0625 -2.03125 Z M 2.84375 -2.03125 "/></g></g></g><g fill="#000000" fill-opacity="1"><g transform="translate(259.744903, 277.333819)"><g><path d="M 2.84375 -2.03125 L 2.84375 0 L -0.0625 0 L -0.0625 -2.03125 Z M 2.84375 -2.03125 "/></g></g></g><g fill="#000000" fill-opacity="1"><g transform="translate(262.535956, 277.333819)"><g><path d="M 2.84375 -2.03125 L 2.84375 0 L -0.0625 0 L -0.0625 -2.03125 Z M 2.84375 -2.03125 "/></g></g></g><g fill="#000000" fill-opacity="1"><g transform="translate(265.327009, 277.333819)"><g><path d="M 2.84375 -2.03125 L 2.84375 0 L -0.0625 0 L -0.0625 -2.03125 Z M 2.84375 -2.03125 "/></g></g></g><g fill="#000000" fill-opacity="1"><g transform="translate(268.118062, 277.333819)"><g><path d="M 2.84375 -2.03125 L 2.84375 0 L -0.0625 0 L -0.0625 -2.03125 Z M 2.84375 -2.03125 "/></g></g></g><g fill="#000000" fill-opacity="1"><g transform="translate(270.909115, 277.333819)"><g><path d="M 2.03125 -6.953125 C 3.019531 -7.253906 3.929688 -7.40625 4.765625 -7.40625 C 6.015625 -7.40625 7.066406 -7.015625 7.921875 -6.234375 C 8.710938 -5.492188 9.109375 -4.597656 9.109375 -3.546875 L 9.109375 -2.171875 C 9.109375 -2.128906 9.113281 -2.082031 9.125 -2.03125 L 9.609375 -2.03125 L 9.609375 0 L 9.296875 0 L 8.71875 -0.71875 L 8.671875 -0.71875 C 8.285156 -0.238281 7.78125 0 7.15625 0 L -0.0625 0 L -0.0625 -2.03125 L 6.46875 -2.03125 C 6.613281 -2.03125 6.6875 -2.101562 6.6875 -2.25 L 6.6875 -3.28125 C 6.6875 -3.875 6.445312 -4.363281 5.96875 -4.75 C 5.488281 -5.144531 4.894531 -5.34375 4.1875 -5.34375 C 3.601562 -5.34375 2.882812 -5.234375 2.03125 -5.015625 Z M 2.03125 -6.953125 "/></g></g></g><g fill="#000000" fill-opacity="1"><g transform="translate(280.458262, 277.333819)"><g><path d="M 5.171875 -11.234375 L 5.171875 -1.9375 C 5.171875 -1.476562 5.023438 -1.066406 4.734375 -0.703125 C 4.335938 -0.234375 3.832031 0 3.21875 0 L -0.0625 0 L -0.0625 -2.03125 L 2.53125 -2.03125 C 2.59375 -2.03125 2.644531 -2.046875 2.6875 -2.078125 C 2.738281 -2.117188 2.765625 -2.175781 2.765625 -2.25 L 2.765625 -11.234375 Z M 5.171875 -11.234375 "/></g></g></g><g fill="#000000" fill-opacity="1"><g transform="translate(286.714613, 277.333819)"><g><path d="M 3.5 -11.234375 L 3.5 -0.59375 L 2.28125 0.390625 L 1.078125 0.390625 L 1.078125 -11.234375 Z M 3.5 -11.234375 "/></g></g></g><g fill="#000000" fill-opacity="1"><g transform="translate(291.293195, 277.333819)"><g/></g></g><g fill="#000000" fill-opacity="1"><g transform="translate(294.178342, 277.333819)"><g><path d="M 3.5 -0.890625 C 3.5 0.0976562 3.738281 0.785156 4.21875 1.171875 C 4.707031 1.554688 5.578125 1.75 6.828125 1.75 C 8.503906 1.75 9.34375 1.3125 9.34375 0.4375 C 9.34375 0.175781 9.242188 -0.0195312 9.046875 -0.15625 C 8.859375 -0.300781 8.445312 -0.472656 7.8125 -0.671875 C 6.851562 -0.972656 6.148438 -1.394531 5.703125 -1.9375 C 5.265625 -2.476562 5.046875 -3.179688 5.046875 -4.046875 C 5.046875 -5.203125 5.4375 -6.082031 6.21875 -6.6875 C 6.84375 -7.164062 7.671875 -7.40625 8.703125 -7.40625 C 9.367188 -7.40625 9.988281 -7.316406 10.5625 -7.140625 L 10.5625 -5.328125 C 10.03125 -5.453125 9.570312 -5.515625 9.1875 -5.515625 C 8.644531 -5.515625 8.207031 -5.382812 7.875 -5.125 C 7.550781 -4.863281 7.390625 -4.519531 7.390625 -4.09375 C 7.390625 -3.675781 7.492188 -3.367188 7.703125 -3.171875 C 7.921875 -2.972656 8.414062 -2.710938 9.1875 -2.390625 C 10.082031 -2.015625 10.707031 -1.660156 11.0625 -1.328125 C 11.53125 -0.878906 11.765625 -0.3125 11.765625 0.375 C 11.765625 1.613281 11.207031 2.53125 10.09375 3.125 C 9.289062 3.539062 8.316406 3.75 7.171875 3.75 L 5.78125 3.75 C 4.644531 3.75 3.671875 3.5 2.859375 3 C 1.671875 2.226562 1.078125 1.03125 1.078125 -0.59375 L 1.078125 -1.75 L 2.3125 -2.734375 L 3.5 -2.734375 Z M 4.984375 4.65625 C 5.316406 4.65625 5.601562 4.773438 5.84375 5.015625 C 6.09375 5.253906 6.21875 5.550781 6.21875 5.90625 C 6.21875 6.238281 6.09375 6.519531 5.84375 6.75 C 5.601562 6.988281 5.316406 7.109375 4.984375 7.109375 C 4.640625 7.109375 4.347656 6.988281 4.109375 6.75 C 3.878906 6.519531 3.765625 6.238281 3.765625 5.90625 C 3.765625 5.550781 3.878906 5.253906 4.109375 5.015625 C 4.347656 4.773438 4.640625 4.65625 4.984375 4.65625 Z M 7.796875 4.65625 C 8.128906 4.65625 8.414062 4.773438 8.65625 5.015625 C 8.894531 5.253906 9.015625 5.550781 9.015625 5.90625 C 9.015625 6.238281 8.894531 6.519531 8.65625 6.75 C 8.414062 6.988281 8.128906 7.109375 7.796875 7.109375 C 7.453125 7.109375 7.160156 6.988281 6.921875 6.75 C 6.691406 6.519531 6.578125 6.238281 6.578125 5.90625 C 6.578125 5.550781 6.691406 5.253906 6.921875 5.015625 C 7.160156 4.773438 7.453125 4.65625 7.796875 4.65625 Z M 7.796875 4.65625 "/></g></g></g><g fill="#000000" fill-opacity="1"><g transform="translate(306.644007, 277.333819)"><g><path d="M 2.203125 -7.3125 C 2.472656 -7.375 2.847656 -7.40625 3.328125 -7.40625 C 4.609375 -7.40625 5.644531 -7.003906 6.4375 -6.203125 C 7.132812 -5.472656 7.484375 -4.554688 7.484375 -3.453125 L 7.484375 -1.9375 C 7.484375 -1.363281 7.273438 -0.890625 6.859375 -0.515625 C 6.484375 -0.171875 6.039062 0 5.53125 0 L 0.609375 0 L 0.609375 -2.03125 L 4.84375 -2.03125 C 4.988281 -2.03125 5.0625 -2.101562 5.0625 -2.25 L 5.0625 -3.265625 C 5.0625 -3.898438 4.863281 -4.421875 4.46875 -4.828125 C 4.082031 -5.234375 3.578125 -5.4375 2.953125 -5.4375 C 2.628906 -5.4375 2.378906 -5.414062 2.203125 -5.375 Z M 2.203125 -7.3125 "/></g></g></g><g fill="#000000" fill-opacity="1"><g transform="translate(315.064204, 277.333819)"><g><path d="M 3.5 -11.234375 L 3.5 -2.25 C 3.5 -2.226562 3.503906 -2.195312 3.515625 -2.15625 L 3.53125 -2.140625 C 3.5625 -2.066406 3.625 -2.03125 3.71875 -2.03125 L 4.296875 -2.03125 L 4.296875 0 L 3.03125 0 C 2.519531 0 2.066406 -0.179688 1.671875 -0.546875 C 1.273438 -0.929688 1.078125 -1.394531 1.078125 -1.9375 L 1.078125 -11.234375 Z M 3.5 -11.234375 "/></g></g></g><g fill="#000000" fill-opacity="1"><g transform="translate(319.297821, 277.333819)"><g><path d="M 2.84375 -2.03125 L 2.84375 0 L -0.0625 0 L -0.0625 -2.03125 Z M 2.84375 -2.03125 "/></g></g></g><g fill="#000000" fill-opacity="1"><g transform="translate(322.088874, 277.333819)"><g><path d="M 2.84375 -2.03125 L 2.84375 0 L -0.0625 0 L -0.0625 -2.03125 Z M 2.84375 -2.03125 "/></g></g></g><g fill="#000000" fill-opacity="1"><g transform="translate(324.879927, 277.333819)"><g><path d="M 2.84375 -2.03125 L 2.84375 0 L -0.0625 0 L -0.0625 -2.03125 Z M 2.84375 -2.03125 "/></g></g></g><g fill="#000000" fill-opacity="1"><g transform="translate(327.67098, 277.333819)"><g><path d="M 2.84375 -2.03125 L 2.84375 0 L -0.0625 0 L -0.0625 -2.03125 Z M 2.84375 -2.03125 "/></g></g></g><g fill="#000000" fill-opacity="1"><g transform="translate(330.462033, 277.333819)"><g><path d="M 3.953125 -10.671875 C 4.296875 -10.671875 4.582031 -10.550781 4.8125 -10.3125 C 5.050781 -10.082031 5.171875 -9.789062 5.171875 -9.4375 C 5.171875 -9.101562 5.050781 -8.816406 4.8125 -8.578125 C 4.582031 -8.335938 4.296875 -8.21875 3.953125 -8.21875 C 3.617188 -8.21875 3.332031 -8.335938 3.09375 -8.578125 C 2.851562 -8.816406 2.734375 -9.101562 2.734375 -9.4375 C 2.734375 -9.78125 2.851562 -10.070312 3.09375 -10.3125 C 3.332031 -10.550781 3.617188 -10.671875 3.953125 -10.671875 Z M 5.171875 -7.21875 L 5.171875 -1.9375 C 5.171875 -1.476562 5.019531 -1.066406 4.71875 -0.703125 C 4.320312 -0.234375 3.820312 0 3.21875 0 L -0.0625 0 L -0.0625 -2.03125 L 2.53125 -2.03125 C 2.59375 -2.03125 2.644531 -2.046875 2.6875 -2.078125 C 2.738281 -2.117188 2.765625 -2.175781 2.765625 -2.25 L 2.765625 -7.21875 Z M 5.171875 -7.21875 "/></g></g></g></svg>