<svg width="1322" height="343" viewBox="0 0 1322 343" fill="none" xmlns="http://www.w3.org/2000/svg">
<path fill-rule="evenodd" clip-rule="evenodd" d="M1321.03 342.931L1266.05 297.483C1211.07 252.035 1101.12 161.139 991.082 132.631C881.045 104.123 770.922 138.003 660.831 149.196C550.739 160.39 440.678 148.897 330.625 131.732C220.572 114.568 110.526 91.7313 55.5037 80.3132L0.481021 68.895L0.573625 0.835486L55.6118 0.910373C110.65 0.98526 220.726 1.13503 330.802 1.28481C440.879 1.43458 550.955 1.58436 661.031 1.73413C771.107 1.88391 881.184 2.03368 991.26 2.18345C1101.34 2.33323 1211.41 2.483 1266.45 2.55789L1321.49 2.63278L1321.03 342.931Z" fill="#010938"/>
</svg>
